<?xml version="1.0" encoding="utf-8"?>
<!-- Generator: Adobe Illustrator 27.5.0, SVG Export Plug-In . SVG Version: 6.00 Build 0)  -->
<svg version="1.1" xmlns="http://www.w3.org/2000/svg" xmlns:xlink="http://www.w3.org/1999/xlink" x="0px" y="0px"
	 viewBox="0 0 500 500" style="enable-background:new 0 0 500 500;" xml:space="preserve">
<g id="Background_Complete">
	<g>
		<rect y="382.398" style="fill:#EBEBEB;" width="500" height="0.25"/>
		<rect x="416.779" y="398.494" style="fill:#EBEBEB;" width="33.122" height="0.25"/>
		<rect x="322.527" y="401.208" style="fill:#EBEBEB;" width="8.693" height="0.25"/>
		<rect x="396.586" y="389.208" style="fill:#EBEBEB;" width="19.192" height="0.25"/>
		<rect x="52.459" y="390.888" style="fill:#EBEBEB;" width="43.193" height="0.25"/>
		<rect x="104.556" y="390.888" style="fill:#EBEBEB;" width="6.333" height="0.25"/>
		<rect x="131.471" y="395.111" style="fill:#EBEBEB;" width="93.676" height="0.25"/>
		<path style="fill:#EBEBEB;" d="M237.014,337.8H43.915c-3.147,0-5.708-2.561-5.708-5.708V60.66c0-3.147,2.561-5.708,5.708-5.708
			h193.099c3.146,0,5.707,2.561,5.707,5.708v271.432C242.721,335.239,240.16,337.8,237.014,337.8z M43.915,55.203
			c-3.01,0-5.458,2.448-5.458,5.458v271.432c0,3.01,2.448,5.458,5.458,5.458h193.099c3.009,0,5.457-2.448,5.457-5.458V60.66
			c0-3.009-2.448-5.458-5.457-5.458H43.915z"/>
		<path style="fill:#EBEBEB;" d="M453.31,337.8H260.212c-3.147,0-5.707-2.561-5.707-5.708V60.66c0-3.147,2.561-5.708,5.707-5.708
			H453.31c3.148,0,5.708,2.561,5.708,5.708v271.432C459.019,335.239,456.458,337.8,453.31,337.8z M260.212,55.203
			c-3.009,0-5.457,2.448-5.457,5.458v271.432c0,3.01,2.448,5.458,5.457,5.458H453.31c3.01,0,5.458-2.448,5.458-5.458V60.66
			c0-3.009-2.448-5.458-5.458-5.458H260.212z"/>
	</g>
	<g>
		<g>
			<rect x="350.869" y="96.128" style="fill:#EBEBEB;" width="82.857" height="286.696"/>
			<rect x="429.405" y="96.128" style="fill:#E0E0E0;" width="4.321" height="286.696"/>
			<g>
				<rect x="369.069" y="117.895" style="fill:#E0E0E0;" width="19.077" height="22.028"/>
				<rect x="371.094" y="119.032" style="fill:#F5F5F5;" width="17.053" height="20.892"/>
			</g>
			<g>
				<rect x="391.567" y="117.895" style="fill:#E0E0E0;" width="19.077" height="22.028"/>
				<rect x="393.592" y="119.032" style="fill:#F5F5F5;" width="17.053" height="20.892"/>
			</g>
			<g>
				<rect x="369.069" y="143.767" style="fill:#E0E0E0;" width="19.077" height="22.028"/>
				<rect x="371.094" y="144.904" style="fill:#F5F5F5;" width="17.053" height="20.892"/>
			</g>
			<g>
				<rect x="391.567" y="143.767" style="fill:#E0E0E0;" width="19.077" height="22.028"/>
				<rect x="393.592" y="144.904" style="fill:#F5F5F5;" width="17.053" height="20.892"/>
			</g>
			<path style="fill:#E6E6E6;" d="M421.882,217.317c0,1.575-1.106,2.851-2.469,2.851c-1.364,0-2.469-1.276-2.469-2.851
				c0-1.575,1.105-2.851,2.469-2.851C420.777,214.465,421.882,215.742,421.882,217.317z"/>
			<g>
				<path style="fill:#E0E0E0;" d="M420.84,217.317c0,2.079-1.46,3.765-3.261,3.765c-1.801,0-3.261-1.686-3.261-3.765
					c0-2.079,1.46-3.765,3.261-3.765C419.38,213.552,420.84,215.237,420.84,217.317z"/>
			</g>
		</g>
		<g>
			<rect x="73.275" y="276.553" style="fill:#EBEBEB;" width="242.901" height="106.271"/>
			<path style="fill:#E0E0E0;" d="M316.319,279.112H73.132c-2.033,0-3.681-1.648-3.681-3.681l0,0c0-2.033,1.648-3.681,3.681-3.681
				h243.187c2.033,0,3.681,1.648,3.681,3.681l0,0C320,277.464,318.352,279.112,316.319,279.112z"/>
		</g>
		<g>
			<rect x="104.054" y="224.044" style="fill:#E0E0E0;" width="3.692" height="13.698"/>
			<polygon style="fill:#EBEBEB;" points="141.25,258.59 141.25,271.75 88.11,271.75 88.11,235.37 124.49,235.37 124.49,251.31 			
				"/>
			<polygon style="fill:#E0E0E0;" points="114.25,258.59 114.25,271.75 88.11,271.75 88.11,235.37 97.49,235.37 97.49,251.31 			"/>
			<rect x="87.858" y="217.978" style="fill:#E0E0E0;" width="36.085" height="8.6"/>
		</g>
		<rect x="159.542" y="255" style="fill:#EBEBEB;" width="28.392" height="16.75"/>
		<g>
			<g>
				<path style="fill:#E0E0E0;" d="M83.668,207.641c-0.565-1.045-0.442-2.091-0.462-3.137l-0.012-3.137l-0.025-6.274l-0.049-12.549
					l-0.089-25.098l-0.02-25.098L83.03,119.8l0.009-3.137l0.004-1.569c-0.002-0.507,0.016-1.106-0.021-1.439
					c-0.079-0.781-0.475-1.518-1.062-2.043c-0.588-0.528-1.363-0.826-2.158-0.833l-0.178-0.015l0.178,0.015
					c-0.86-0.005-1.707,0.34-2.32,0.95c-0.615,0.607-0.97,1.454-0.972,2.322c-0.001,0.568-0.463,1.028-1.031,1.027
					c-0.565-0.001-1.022-0.457-1.027-1.02l0-0.005c-0.012-1.401,0.561-2.805,1.554-3.798c0.984-1.002,2.386-1.59,3.794-1.591
					l0.178,0.015l-0.178-0.015c1.3-0.006,2.604,0.481,3.578,1.345c0.978,0.856,1.645,2.082,1.793,3.386
					c0.07,0.707,0.037,1.157,0.049,1.695l0.008,1.568l0.016,3.137l0.048,12.549l0.04,25.098l-0.029,25.098l-0.019,12.549
					l-0.01,6.274l-0.005,3.137c-0.018,1.046,0.108,2.091-0.455,3.138c-0.171,0.317-0.566,0.436-0.883,0.266
					C83.816,207.842,83.727,207.749,83.668,207.641z"/>
				<path style="fill:#E6E6E6;" d="M89.9,155.84c-0.465,12.837-4.661,47.498-4.661,47.498l-1.968-0.071
					c0,0-5.023-40.605-4.681-50.041c0.342-9.436,2.099-15.291,2.099-15.291l-2.022-7.661c-0.078-0.298,0.28-0.519,0.513-0.318
					c0.28,0.237,0.548,0.418,0.797,0.558c1.407,0.772,2.439,0.157,3.115-0.677c0.294-0.353,0.521-0.75,0.692-1.094
					c0.133-0.263,0.509-0.208,0.588,0.07c0.802,2.885,2.101,2.837,3.208,2.046c0.367-0.261,0.708-0.599,1.009-0.945
					c0.222-0.26,0.64-0.032,0.539,0.294l-2.362,7.948C86.765,138.155,90.366,142.996,89.9,155.84z"/>
				<path style="fill:#E0E0E0;enable-background:new    ;" d="M84.491,203.311c-0.077,0.615-0.124,0.95-0.124,0.95l0.014-0.954
					l0.895-64.842l-0.907-9.653c0.802,2.885,2.101,2.837,3.208,2.046l-0.814,7.297C90.89,150.314,85.383,196.134,84.491,203.311z"/>
				<path style="fill:#E0E0E0;enable-background:new    ;" d="M84.236,204.868c-0.016-0.131-0.071-0.682-0.17-1.572
					c-0.873-7.942-4.688-43.037-4.731-50.736c-0.049-8.695,2.421-14.311,2.421-14.311l-1.78-7.734
					c1.407,0.772,2.439,0.157,3.115-0.677l0.612,8.118c0,0-1.289,2.219-1.583,15.248c-0.257,11.444,1.57,42.664,2.022,50.096
					C84.199,204.18,84.227,204.723,84.236,204.868z"/>
				<g>
					<polygon style="fill:#E0E0E0;" points="87.571,137.077 79.88,137.546 79.834,138.834 87.507,138.841 					"/>
					<polygon style="opacity:0.2;fill:#E0E0E0;enable-background:new    ;" points="87.571,137.077 79.88,137.546 79.834,138.834 
						87.507,138.841 					"/>
				</g>
			</g>
			<g>
				<path style="fill:#E0E0E0;" d="M121.152,207.641c-0.565-1.045-0.442-2.091-0.462-3.137l-0.012-3.137l-0.024-6.274l-0.049-12.549
					l-0.089-25.098l-0.02-25.098l0.018-12.549l0.009-3.137l0.004-1.569c-0.002-0.507,0.016-1.106-0.021-1.439
					c-0.079-0.781-0.475-1.518-1.063-2.043c-0.588-0.528-1.363-0.826-2.158-0.833l-0.178-0.015l0.178,0.015
					c-0.86-0.005-1.707,0.34-2.32,0.95c-0.615,0.607-0.97,1.454-0.972,2.322c-0.001,0.568-0.463,1.028-1.032,1.027
					c-0.565-0.001-1.022-0.457-1.027-1.02l0-0.005c-0.012-1.401,0.561-2.805,1.554-3.798c0.984-1.002,2.386-1.59,3.794-1.591
					l0.178,0.015l-0.178-0.015c1.3-0.006,2.604,0.481,3.578,1.345c0.978,0.856,1.645,2.082,1.793,3.386
					c0.07,0.707,0.037,1.157,0.049,1.695l0.008,1.568l0.016,3.137l0.048,12.549l0.04,25.098l-0.029,25.098l-0.019,12.549
					l-0.009,6.274l-0.005,3.137c-0.018,1.046,0.108,2.091-0.455,3.138c-0.17,0.317-0.566,0.436-0.883,0.266
					C121.3,207.842,121.211,207.749,121.152,207.641z"/>
				<path style="fill:#E6E6E6;" d="M127.384,155.84c-0.465,12.837-4.661,47.498-4.661,47.498l-1.968-0.071
					c0,0-5.023-40.605-4.681-50.041c0.342-9.436,2.1-15.291,2.1-15.291l-2.022-7.661c-0.079-0.298,0.28-0.519,0.513-0.318
					c0.28,0.237,0.548,0.418,0.797,0.558c1.407,0.772,2.439,0.157,3.114-0.677c0.294-0.353,0.522-0.75,0.692-1.094
					c0.133-0.263,0.509-0.208,0.588,0.07c0.802,2.885,2.101,2.837,3.208,2.046c0.367-0.261,0.708-0.599,1.009-0.945
					c0.222-0.26,0.64-0.032,0.539,0.294l-2.362,7.948C124.248,138.155,127.85,142.996,127.384,155.84z"/>
				<path style="fill:#E0E0E0;enable-background:new    ;" d="M121.975,203.311c-0.077,0.615-0.124,0.95-0.124,0.95l0.014-0.954
					l0.895-64.842l-0.907-9.653c0.802,2.885,2.101,2.837,3.208,2.046l-0.814,7.297C128.374,150.314,122.867,196.134,121.975,203.311
					z"/>
				<path style="fill:#E0E0E0;enable-background:new    ;" d="M121.719,204.868c-0.016-0.131-0.071-0.682-0.169-1.572
					c-0.873-7.942-4.688-43.037-4.732-50.736c-0.049-8.695,2.421-14.311,2.421-14.311l-1.78-7.734
					c1.407,0.772,2.439,0.157,3.114-0.677l0.612,8.118c0,0-1.289,2.219-1.583,15.248c-0.257,11.444,1.57,42.664,2.022,50.096
					C121.683,204.18,121.711,204.723,121.719,204.868z"/>
				<g>
					<polygon style="fill:#E0E0E0;" points="125.055,137.077 117.364,137.546 117.317,138.834 124.991,138.841 					"/>
					<polygon style="opacity:0.2;fill:#E0E0E0;enable-background:new    ;" points="125.055,137.077 117.364,137.546 
						117.317,138.834 124.991,138.841 					"/>
				</g>
			</g>
			<g>
				<path style="fill:#E0E0E0;" d="M158.636,207.641c-0.565-1.045-0.442-2.091-0.462-3.137l-0.012-3.137l-0.025-6.274l-0.049-12.549
					l-0.089-25.098l-0.02-25.098l0.018-12.549l0.009-3.137l0.004-1.569c-0.002-0.507,0.016-1.106-0.021-1.439
					c-0.079-0.781-0.475-1.518-1.063-2.043c-0.588-0.528-1.363-0.826-2.158-0.833l-0.178-0.015l0.178,0.015
					c-0.86-0.005-1.707,0.34-2.32,0.95c-0.615,0.607-0.97,1.454-0.972,2.322c-0.001,0.568-0.463,1.028-1.031,1.027
					c-0.565-0.001-1.022-0.457-1.027-1.02l0-0.005c-0.012-1.401,0.561-2.805,1.554-3.798c0.984-1.002,2.386-1.59,3.794-1.591
					l0.178,0.015l-0.178-0.015c1.3-0.006,2.604,0.481,3.578,1.345c0.978,0.856,1.645,2.082,1.793,3.386
					c0.07,0.707,0.037,1.157,0.049,1.695l0.008,1.568l0.016,3.137l0.048,12.549l0.04,25.098l-0.029,25.098l-0.019,12.549
					l-0.01,6.274l-0.005,3.137c-0.018,1.046,0.108,2.091-0.455,3.138c-0.171,0.317-0.566,0.436-0.883,0.266
					C158.784,207.842,158.694,207.749,158.636,207.641z"/>
				<path style="fill:#E6E6E6;" d="M164.868,155.84c-0.465,12.837-4.661,47.498-4.661,47.498l-1.968-0.071
					c0,0-5.023-40.605-4.681-50.041c0.342-9.436,2.099-15.291,2.099-15.291l-2.022-7.661c-0.079-0.298,0.28-0.519,0.513-0.318
					c0.28,0.237,0.548,0.418,0.797,0.558c1.407,0.772,2.439,0.157,3.115-0.677c0.294-0.353,0.522-0.75,0.692-1.094
					c0.133-0.263,0.509-0.208,0.588,0.07c0.802,2.885,2.101,2.837,3.208,2.046c0.367-0.261,0.708-0.599,1.009-0.945
					c0.222-0.26,0.64-0.032,0.539,0.294l-2.362,7.948C161.732,138.155,165.333,142.996,164.868,155.84z"/>
				<path style="fill:#E0E0E0;enable-background:new    ;" d="M159.459,203.311c-0.077,0.615-0.124,0.95-0.124,0.95l0.014-0.954
					l0.895-64.842l-0.906-9.653c0.802,2.885,2.101,2.837,3.208,2.046l-0.814,7.297C165.858,150.314,160.351,196.134,159.459,203.311
					z"/>
				<path style="fill:#E0E0E0;enable-background:new    ;" d="M159.204,204.868c-0.016-0.131-0.071-0.682-0.17-1.572
					c-0.873-7.942-4.688-43.037-4.732-50.736c-0.049-8.695,2.421-14.311,2.421-14.311l-1.78-7.734
					c1.407,0.772,2.439,0.157,3.115-0.677l0.612,8.118c0,0-1.289,2.219-1.583,15.248c-0.257,11.444,1.571,42.664,2.022,50.096
					C159.167,204.18,159.195,204.723,159.204,204.868z"/>
				<g>
					<polygon style="fill:#E0E0E0;" points="162.539,137.077 154.848,137.546 154.801,138.834 162.475,138.841 					"/>
					<polygon style="opacity:0.2;fill:#E0E0E0;enable-background:new    ;" points="162.539,137.077 154.848,137.546 
						154.801,138.834 162.475,138.841 					"/>
				</g>
			</g>
			<g>
				<path style="fill:#E0E0E0;" d="M196.12,207.641c-0.565-1.045-0.442-2.091-0.462-3.137l-0.012-3.137l-0.024-6.274l-0.049-12.549
					l-0.089-25.098l-0.02-25.098l0.018-12.549l0.009-3.137l0.004-1.569c-0.002-0.507,0.016-1.106-0.021-1.439
					c-0.079-0.781-0.475-1.518-1.063-2.043c-0.588-0.528-1.363-0.826-2.158-0.833l-0.178-0.015l0.178,0.015
					c-0.86-0.005-1.707,0.34-2.32,0.95c-0.615,0.607-0.97,1.454-0.972,2.322c-0.001,0.568-0.463,1.028-1.031,1.027
					c-0.564-0.001-1.022-0.457-1.027-1.02l0-0.005c-0.012-1.401,0.561-2.805,1.554-3.798c0.984-1.002,2.386-1.59,3.794-1.591
					l0.178,0.015l-0.178-0.015c1.3-0.006,2.604,0.481,3.578,1.345c0.978,0.856,1.645,2.082,1.793,3.386
					c0.07,0.707,0.037,1.157,0.049,1.695l0.008,1.568l0.016,3.137l0.048,12.549l0.04,25.098l-0.029,25.098l-0.019,12.549
					l-0.009,6.274l-0.005,3.137c-0.018,1.046,0.108,2.091-0.455,3.138c-0.171,0.317-0.566,0.436-0.883,0.266
					C196.268,207.842,196.178,207.749,196.12,207.641z"/>
				<path style="fill:#E6E6E6;" d="M202.352,155.84c-0.465,12.837-4.661,47.498-4.661,47.498l-1.968-0.071
					c0,0-5.023-40.605-4.681-50.041c0.342-9.436,2.099-15.291,2.099-15.291l-2.022-7.661c-0.078-0.298,0.28-0.519,0.513-0.318
					c0.28,0.237,0.548,0.418,0.797,0.558c1.407,0.772,2.439,0.157,3.114-0.677c0.294-0.353,0.522-0.75,0.692-1.094
					c0.133-0.263,0.509-0.208,0.588,0.07c0.802,2.885,2.101,2.837,3.208,2.046c0.367-0.261,0.708-0.599,1.009-0.945
					c0.222-0.26,0.64-0.032,0.539,0.294l-2.362,7.948C199.216,138.155,202.818,142.996,202.352,155.84z"/>
				<path style="fill:#E0E0E0;enable-background:new    ;" d="M196.943,203.311c-0.077,0.615-0.124,0.95-0.124,0.95l0.014-0.954
					l0.896-64.842l-0.907-9.653c0.802,2.885,2.101,2.837,3.208,2.046l-0.814,7.297C203.342,150.314,197.835,196.134,196.943,203.311
					z"/>
				<path style="fill:#E0E0E0;enable-background:new    ;" d="M196.687,204.868c-0.016-0.131-0.071-0.682-0.169-1.572
					c-0.873-7.942-4.688-43.037-4.731-50.736c-0.049-8.695,2.421-14.311,2.421-14.311l-1.78-7.734
					c1.407,0.772,2.439,0.157,3.114-0.677l0.612,8.118c0,0-1.289,2.219-1.583,15.248c-0.257,11.444,1.57,42.664,2.022,50.096
					C196.651,204.18,196.679,204.723,196.687,204.868z"/>
				<g>
					<polygon style="fill:#E0E0E0;" points="200.023,137.077 192.332,137.546 192.285,138.834 199.959,138.841 					"/>
					<polygon style="opacity:0.2;fill:#E0E0E0;enable-background:new    ;" points="200.023,137.077 192.332,137.546 
						192.285,138.834 199.959,138.841 					"/>
				</g>
			</g>
			<g>
				<path style="fill:#E0E0E0;" d="M233.604,207.641c-0.565-1.045-0.442-2.091-0.462-3.137l-0.012-3.137l-0.024-6.274l-0.049-12.549
					l-0.089-25.098l-0.02-25.098l0.018-12.549l0.009-3.137l0.004-1.569c-0.002-0.507,0.016-1.106-0.021-1.439
					c-0.079-0.781-0.475-1.518-1.063-2.043c-0.588-0.528-1.363-0.826-2.158-0.833l-0.178-0.015l0.178,0.015
					c-0.86-0.005-1.707,0.34-2.32,0.95c-0.615,0.607-0.97,1.454-0.972,2.322c-0.001,0.568-0.463,1.028-1.032,1.027
					c-0.565-0.001-1.022-0.457-1.027-1.02l0-0.005c-0.012-1.401,0.561-2.805,1.554-3.798c0.984-1.002,2.386-1.59,3.794-1.591
					l0.178,0.015l-0.178-0.015c1.3-0.006,2.604,0.481,3.578,1.345c0.978,0.856,1.645,2.082,1.793,3.386
					c0.07,0.707,0.037,1.157,0.049,1.695l0.008,1.568l0.016,3.137l0.048,12.549l0.04,25.098l-0.029,25.098l-0.019,12.549
					l-0.01,6.274l-0.005,3.137c-0.018,1.046,0.108,2.091-0.455,3.138c-0.171,0.317-0.566,0.436-0.883,0.266
					C233.752,207.842,233.662,207.749,233.604,207.641z"/>
				<path style="fill:#E6E6E6;" d="M239.836,155.84c-0.465,12.837-4.661,47.498-4.661,47.498l-1.968-0.071
					c0,0-5.023-40.605-4.681-50.041c0.342-9.436,2.099-15.291,2.099-15.291l-2.022-7.661c-0.078-0.298,0.28-0.519,0.513-0.318
					c0.28,0.237,0.548,0.418,0.797,0.558c1.407,0.772,2.439,0.157,3.115-0.677c0.294-0.353,0.522-0.75,0.692-1.094
					c0.133-0.263,0.509-0.208,0.588,0.07c0.802,2.885,2.101,2.837,3.208,2.046c0.367-0.261,0.708-0.599,1.01-0.945
					c0.222-0.26,0.64-0.032,0.539,0.294l-2.362,7.948C236.7,138.155,240.301,142.996,239.836,155.84z"/>
				<path style="fill:#E0E0E0;enable-background:new    ;" d="M234.427,203.311c-0.077,0.615-0.124,0.95-0.124,0.95l0.014-0.954
					l0.895-64.842l-0.907-9.653c0.802,2.885,2.101,2.837,3.208,2.046l-0.814,7.297C240.826,150.314,235.319,196.134,234.427,203.311
					z"/>
				<path style="fill:#E0E0E0;enable-background:new    ;" d="M234.171,204.868c-0.016-0.131-0.071-0.682-0.169-1.572
					c-0.873-7.942-4.688-43.037-4.732-50.736c-0.049-8.695,2.421-14.311,2.421-14.311l-1.78-7.734
					c1.407,0.772,2.439,0.157,3.115-0.677l0.612,8.118c0,0-1.289,2.219-1.583,15.248c-0.257,11.444,1.57,42.664,2.022,50.096
					C234.135,204.18,234.163,204.723,234.171,204.868z"/>
				<g>
					<polygon style="fill:#E0E0E0;" points="237.507,137.077 229.816,137.546 229.769,138.834 237.443,138.841 					"/>
					<polygon style="opacity:0.2;fill:#E0E0E0;enable-background:new    ;" points="237.507,137.077 229.816,137.546 
						229.769,138.834 237.443,138.841 					"/>
				</g>
			</g>
			<g>
				<path style="fill:#E0E0E0;" d="M271.088,207.641c-0.565-1.045-0.442-2.091-0.462-3.137l-0.012-3.137l-0.025-6.274l-0.049-12.549
					l-0.089-25.098l-0.02-25.098l0.018-12.549l0.009-3.137l0.004-1.569c-0.002-0.507,0.016-1.106-0.021-1.439
					c-0.079-0.781-0.475-1.518-1.062-2.043c-0.588-0.528-1.363-0.826-2.158-0.833l-0.178-0.015l0.178,0.015
					c-0.86-0.005-1.707,0.34-2.32,0.95c-0.615,0.607-0.97,1.454-0.972,2.322c-0.001,0.568-0.463,1.028-1.031,1.027
					c-0.565-0.001-1.022-0.457-1.027-1.02l0-0.005c-0.012-1.401,0.561-2.805,1.554-3.798c0.984-1.002,2.386-1.59,3.794-1.591
					l0.178,0.015l-0.178-0.015c1.3-0.006,2.604,0.481,3.578,1.345c0.978,0.856,1.645,2.082,1.793,3.386
					c0.07,0.707,0.037,1.157,0.049,1.695l0.008,1.568l0.016,3.137l0.048,12.549l0.04,25.098l-0.029,25.098l-0.019,12.549
					l-0.01,6.274l-0.005,3.137c-0.018,1.046,0.108,2.091-0.455,3.138c-0.171,0.317-0.566,0.436-0.883,0.266
					C271.236,207.842,271.146,207.749,271.088,207.641z"/>
				<path style="fill:#E6E6E6;" d="M277.32,155.84c-0.466,12.837-4.661,47.498-4.661,47.498l-1.968-0.071
					c0,0-5.023-40.605-4.681-50.041c0.342-9.436,2.099-15.291,2.099-15.291l-2.022-7.661c-0.078-0.298,0.28-0.519,0.513-0.318
					c0.28,0.237,0.548,0.418,0.797,0.558c1.407,0.772,2.439,0.157,3.115-0.677c0.294-0.353,0.522-0.75,0.692-1.094
					c0.133-0.263,0.509-0.208,0.588,0.07c0.802,2.885,2.101,2.837,3.208,2.046c0.367-0.261,0.708-0.599,1.009-0.945
					c0.222-0.26,0.64-0.032,0.539,0.294l-2.362,7.948C274.184,138.155,277.785,142.996,277.32,155.84z"/>
				<path style="fill:#E0E0E0;enable-background:new    ;" d="M271.911,203.311c-0.077,0.615-0.124,0.95-0.124,0.95l0.014-0.954
					l0.895-64.842l-0.906-9.653c0.802,2.885,2.101,2.837,3.208,2.046l-0.814,7.297C278.31,150.314,272.803,196.134,271.911,203.311z
					"/>
				<path style="fill:#E0E0E0;enable-background:new    ;" d="M271.655,204.868c-0.016-0.131-0.071-0.682-0.17-1.572
					c-0.873-7.942-4.688-43.037-4.732-50.736c-0.049-8.695,2.421-14.311,2.421-14.311l-1.78-7.734
					c1.407,0.772,2.439,0.157,3.115-0.677l0.612,8.118c0,0-1.289,2.219-1.583,15.248c-0.257,11.444,1.57,42.664,2.022,50.096
					C271.619,204.18,271.647,204.723,271.655,204.868z"/>
				<g>
					<polygon style="fill:#E0E0E0;" points="274.991,137.077 267.3,137.546 267.253,138.834 274.927,138.841 					"/>
					<polygon style="opacity:0.2;fill:#E0E0E0;enable-background:new    ;" points="274.991,137.077 267.3,137.546 267.253,138.834 
						274.927,138.841 					"/>
				</g>
			</g>
			<g>
				<path style="fill:#E0E0E0;" d="M308.572,207.641c-0.565-1.045-0.442-2.091-0.462-3.137l-0.012-3.137l-0.024-6.274l-0.049-12.549
					l-0.089-25.098l-0.02-25.098l0.018-12.549l0.009-3.137l0.004-1.569c-0.002-0.507,0.016-1.106-0.021-1.439
					c-0.079-0.781-0.475-1.518-1.063-2.043c-0.588-0.528-1.363-0.826-2.158-0.833l-0.178-0.015l0.178,0.015
					c-0.86-0.005-1.707,0.34-2.32,0.95c-0.615,0.607-0.97,1.454-0.972,2.322c-0.001,0.568-0.463,1.028-1.031,1.027
					c-0.565-0.001-1.022-0.457-1.027-1.02l0-0.005c-0.012-1.401,0.561-2.805,1.554-3.798c0.984-1.002,2.386-1.59,3.794-1.591
					l0.178,0.015l-0.178-0.015c1.3-0.006,2.604,0.481,3.578,1.345c0.978,0.856,1.645,2.082,1.793,3.386
					c0.07,0.707,0.037,1.157,0.049,1.695l0.008,1.568l0.016,3.137l0.048,12.549l0.04,25.098l-0.029,25.098l-0.019,12.549
					l-0.009,6.274l-0.005,3.137c-0.018,1.046,0.108,2.091-0.455,3.138c-0.171,0.317-0.566,0.436-0.883,0.266
					C308.72,207.842,308.63,207.749,308.572,207.641z"/>
				<path style="fill:#E6E6E6;" d="M314.804,155.84c-0.465,12.837-4.661,47.498-4.661,47.498l-1.968-0.071
					c0,0-5.023-40.605-4.681-50.041c0.342-9.436,2.099-15.291,2.099-15.291l-2.022-7.661c-0.079-0.298,0.28-0.519,0.513-0.318
					c0.28,0.237,0.548,0.418,0.797,0.558c1.407,0.772,2.439,0.157,3.114-0.677c0.294-0.353,0.522-0.75,0.692-1.094
					c0.133-0.263,0.509-0.208,0.588,0.07c0.802,2.885,2.101,2.837,3.208,2.046c0.367-0.261,0.708-0.599,1.009-0.945
					c0.222-0.26,0.64-0.032,0.539,0.294l-2.362,7.948C311.668,138.155,315.269,142.996,314.804,155.84z"/>
				<path style="fill:#E0E0E0;enable-background:new    ;" d="M309.395,203.311c-0.077,0.615-0.124,0.95-0.124,0.95l0.014-0.954
					l0.895-64.842l-0.906-9.653c0.802,2.885,2.101,2.837,3.208,2.046l-0.814,7.297C315.793,150.314,310.287,196.134,309.395,203.311
					z"/>
				<path style="fill:#E0E0E0;enable-background:new    ;" d="M309.139,204.868c-0.016-0.131-0.071-0.682-0.17-1.572
					c-0.873-7.942-4.688-43.037-4.731-50.736c-0.049-8.695,2.421-14.311,2.421-14.311l-1.78-7.734
					c1.407,0.772,2.439,0.157,3.114-0.677l0.612,8.118c0,0-1.289,2.219-1.583,15.248c-0.257,11.444,1.57,42.664,2.022,50.096
					C309.103,204.18,309.131,204.723,309.139,204.868z"/>
				<g>
					<polygon style="fill:#E0E0E0;" points="312.475,137.077 304.784,137.546 304.737,138.834 312.411,138.841 					"/>
					<polygon style="opacity:0.2;fill:#E0E0E0;enable-background:new    ;" points="312.475,137.077 304.784,137.546 
						304.737,138.834 312.411,138.841 					"/>
				</g>
			</g>
			<rect x="78.606" y="100.374" style="fill:#F0F0F0;" width="10.192" height="5.209"/>
			<rect x="116.09" y="100.374" style="fill:#F0F0F0;" width="10.192" height="5.209"/>
			<rect x="153.574" y="100.374" style="fill:#F0F0F0;" width="10.192" height="5.209"/>
			<rect x="191.058" y="100.374" style="fill:#F0F0F0;" width="10.192" height="5.209"/>
			<rect x="228.542" y="100.374" style="fill:#F0F0F0;" width="10.192" height="5.209"/>
			<rect x="266.026" y="100.374" style="fill:#F0F0F0;" width="10.192" height="5.209"/>
			<rect x="303.51" y="100.374" style="fill:#F0F0F0;" width="10.192" height="5.209"/>
		</g>
	</g>
</g>
<g id="Background_Simple" style="display:none;">
	<g style="display:inline;">
		<path style="fill:#407BFF;" d="M250.666,70.536c45.579-6.199,85.712,21.487,110.016,58.106
			c12.333,18.581,21.143,39.547,25.765,61.363c4.158,19.626,6.042,40.077,13.055,58.95c6.791,18.274,14.851,36.175,17.983,55.563
			c6.226,38.555-13.058,71.622-49.291,86.132c-39.702,15.9-89.027,13.137-125.624-9.637c-18.909-11.767-39.535-17.92-60.927-23.332
			c-20.995-5.312-41.778-5.463-61.07-17.049c-25.211-15.141-40.154-43.682-42.752-72.489c-2.617-29.008,9.717-54.496,28.845-75.644
			c13.971-15.447,28.834-30.164,43.192-45.208c14.918-15.63,28.536-32.617,43.859-47.84
			C210.257,83.015,230.02,73.344,250.666,70.536z"/>
		<path style="opacity:0.9;fill:#FFFFFF;" d="M250.666,70.536c45.579-6.199,85.712,21.487,110.016,58.106
			c12.333,18.581,21.143,39.547,25.765,61.363c4.158,19.626,6.042,40.077,13.055,58.95c6.791,18.274,14.851,36.175,17.983,55.563
			c6.226,38.555-13.058,71.622-49.291,86.132c-39.702,15.9-89.027,13.137-125.624-9.637c-18.909-11.767-39.535-17.92-60.927-23.332
			c-20.995-5.312-41.778-5.463-61.07-17.049c-25.211-15.141-40.154-43.682-42.752-72.489c-2.617-29.008,9.717-54.496,28.845-75.644
			c13.971-15.447,28.834-30.164,43.192-45.208c14.918-15.63,28.536-32.617,43.859-47.84
			C210.257,83.015,230.02,73.344,250.666,70.536z"/>
	</g>
</g>
<g id="Shadow_1_">
	<ellipse id="_x3C_Path_x3E__359_" style="fill:#F5F5F5;" cx="250" cy="416.238" rx="193.889" ry="11.323"/>
</g>
<g id="Plant">
	<g>
		<g>
			<path style="fill:#407BFF;" d="M380.99,335.943c-0.227,1.589,4.082,2.635,7.596,3.221c-0.287,2.885-2.206,5.8-4.857,8.523
				c-3.335-1.879-8.096-4.363-8.973-3.756c-0.958,0.663,3.917,3.815,6.966,5.668c-2.145,1.903-4.559,3.677-6.906,5.232
				c-1.495-1.397-3.245-2.623-4.287-1.959c-1.081,0.688-0.789,2.849-0.255,4.777c-3.628,2.115-6.345,3.402-6.345,3.402
				s-1.523-4.616-2.423-10.3c0.183-0.361,0.365-0.726,0.532-1.112c0.584-1.352,0.015-1.928-0.951-2.117
				c-0.25-2.488-0.322-5.047-0.059-7.421c4.106-0.861,9.099-2.455,7.229-4.918c-1.128-1.485-3.193-1.653-5.341-1.281
				c0.3-0.495,0.633-0.962,1.014-1.382c7.473-8.234,12.686,0,12.686,0c4.343-3.619,10.443-2.64,11.762,3.016
				C385.938,334.91,381.27,333.98,380.99,335.943z"/>
			<path style="opacity:0.3;fill:#FFFFFF;enable-background:new    ;" d="M380.99,335.943c-0.227,1.589,4.082,2.635,7.596,3.221
				c-0.287,2.885-2.206,5.8-4.857,8.523c-3.335-1.879-8.096-4.363-8.973-3.756c-0.958,0.663,3.917,3.815,6.966,5.668
				c-2.145,1.903-4.559,3.677-6.906,5.232c-1.495-1.397-3.245-2.623-4.287-1.959c-1.081,0.688-0.789,2.849-0.255,4.777
				c-3.628,2.115-6.345,3.402-6.345,3.402s-1.523-4.616-2.423-10.3c0.183-0.361,0.365-0.726,0.532-1.112
				c0.584-1.352,0.015-1.928-0.951-2.117c-0.25-2.488-0.322-5.047-0.059-7.421c4.106-0.861,9.099-2.455,7.229-4.918
				c-1.128-1.485-3.193-1.653-5.341-1.281c0.3-0.495,0.633-0.962,1.014-1.382c7.473-8.234,12.686,0,12.686,0
				c4.343-3.619,10.443-2.64,11.762,3.016C385.938,334.91,381.27,333.98,380.99,335.943z"/>
		</g>
		<g>
			<g>
				<path style="fill:#407BFF;" d="M371.665,396.457l1.078-0.089c-0.046-0.556-4.425-55.692,7.949-60.889
					c1.329-0.558,2.557-0.528,3.75,0.094c4.471,2.325,6.613,11.978,6.635,12.076l1.056-0.23c-0.091-0.417-2.272-10.245-7.191-12.805
					c-1.477-0.768-3.048-0.813-4.669-0.132C367.183,339.98,371.477,394.153,371.665,396.457z"/>
			</g>
			<g>
				<path style="fill:#407BFF;" d="M370.106,395.262c0.22-2.48,5.27-60.818-4.174-67.01c-2.265-1.484-4.282-1.802-5.998-0.933
					c-4.463,2.25-5.049,11.792-5.071,12.197l1.079,0.061c0.005-0.093,0.572-9.324,4.48-11.294c1.345-0.676,2.999-0.385,4.918,0.873
					c8.908,5.842,3.743,65.41,3.69,66.012L370.106,395.262z"/>
			</g>
			<g>
				<path style="fill:#407BFF;" d="M368.686,399.978c0.071-1.899,1.626-46.554-6.974-50.463c-1.7-0.773-3.422-0.786-5.115-0.041
					c-5.901,2.597-9.546,13.594-9.698,14.061l1.028,0.336c0.035-0.11,3.646-11.006,9.106-13.407
					c1.419-0.623,2.804-0.613,4.232,0.036c6.594,2.998,6.813,36.704,6.342,49.439L368.686,399.978z"/>
			</g>
			<g>
				<path style="fill:#407BFF;" d="M370.875,397.935l1.074-0.122c-1.515-13.29-4.413-48.705,0.321-52.93
					c0.706-0.631,1.339-0.826,1.936-0.599c3.172,1.217,5.104,12.736,5.58,17.072l1.074-0.118
					c-0.183-1.663-1.912-16.292-6.267-17.963c-0.997-0.382-2.02-0.114-3.044,0.801C365.432,349.536,370.649,395.961,370.875,397.935
					z"/>
			</g>
		</g>
		<g>
			<polygon style="fill:#263238;" points="388.912,372.74 350.079,372.74 353.322,416.238 385.669,416.238 			"/>
		</g>
		<g>
			<path style="fill:#407BFF;" d="M383.622,356.778c0.405,1.058,3.421,0.226,5.789-0.618c0.812,1.878,0.628,4.334-0.073,6.922
				c-2.701-0.015-6.488,0.085-6.821,0.76c-0.364,0.737,3.724,1.01,6.239,1.107c-0.67,1.909-1.551,3.831-2.465,5.594
				c-1.401-0.349-2.9-0.505-3.316,0.262c-0.431,0.795,0.49,2.027,1.48,3.034c-1.512,2.548-2.747,4.273-2.747,4.273
				s-2.522-2.325-5.026-5.522c-0.011-0.285-0.024-0.573-0.053-0.868c-0.103-1.035-0.651-1.194-1.312-0.98
				c-1.007-1.449-1.928-3.002-2.581-4.556c2.237-1.939,4.77-4.634,2.772-5.511c-1.205-0.529-2.536,0.075-3.733,1.041
				c0.015-0.408,0.06-0.81,0.151-1.2c1.786-7.641,7.824-4.35,7.824-4.35c1.438-3.721,5.536-5.208,8.288-2.172
				C386.319,354.444,383.122,355.471,383.622,356.778z"/>
			<path style="opacity:0.3;fill:#FFFFFF;enable-background:new    ;" d="M383.622,356.778c0.405,1.058,3.421,0.226,5.789-0.618
				c0.812,1.878,0.628,4.334-0.073,6.922c-2.701-0.015-6.488,0.085-6.821,0.76c-0.364,0.737,3.724,1.01,6.239,1.107
				c-0.67,1.909-1.551,3.831-2.465,5.594c-1.401-0.349-2.9-0.505-3.316,0.262c-0.431,0.795,0.49,2.027,1.48,3.034
				c-1.512,2.548-2.747,4.273-2.747,4.273s-2.522-2.325-5.026-5.522c-0.011-0.285-0.024-0.573-0.053-0.868
				c-0.103-1.035-0.651-1.194-1.312-0.98c-1.007-1.449-1.928-3.002-2.581-4.556c2.237-1.939,4.77-4.634,2.772-5.511
				c-1.205-0.529-2.536,0.075-3.733,1.041c0.015-0.408,0.06-0.81,0.151-1.2c1.786-7.641,7.824-4.35,7.824-4.35
				c1.438-3.721,5.536-5.208,8.288-2.172C386.319,354.444,383.122,355.471,383.622,356.778z"/>
		</g>
		<g>
			<path style="fill:#407BFF;" d="M354.789,361.942c1.225,0.091,2.4,0.371,3.549,0.747c0.299-0.821,0.495-1.675,0.523-2.569
				c0.246-7.832-5.36-4.53-8.322-6.831c-1.477-1.147-3.287-1.885-4.956-1.554c0.25,0.432,0.478,0.877,0.67,1.341
				c0.31,0.75-0.179,1.531-0.948,1.675c-0.723,0.135-1.535,0.073-2.199-0.261c-0.208-0.104-0.381-0.255-0.566-0.391
				c-0.414,0.699-0.78,1.555-1.076,2.619c-0.302,1.088-0.458,2.216-0.507,3.349c0.441,0.099,0.878,0.216,1.31,0.37
				c0.674,0.239,1.034,1.316,0.49,1.861c-0.477,0.479-1.022,0.859-1.616,1.134c0.194,1.29,0.553,2.513,0.986,3.671
				c0.133,0.021,0.267,0.035,0.399,0.061c0.285,0.056,0.566,0.129,0.845,0.209c0.16,0.046,0.319,0.1,0.469,0.172
				c0.388,0.184,0.671,0.516,0.732,0.95c0.06,0.427-0.118,0.869-0.461,1.131c-0.182,0.139-0.383,0.249-0.583,0.358
				c0.893,1.413,1.948,2.533,3.102,3.13c0,0,1.429-0.624,3.299-1.744c-0.234-0.313-0.468-0.627-0.686-0.951
				c-0.257-0.382-0.371-0.774-0.332-1.23c0.037-0.442,0.305-0.828,0.634-1.105c0.318-0.267,0.825-0.385,1.23-0.332
				c0.396,0.051,0.876,0.294,1.105,0.635c0.26,0.386,0.546,0.753,0.829,1.121c1.431-1.078,2.855-2.381,3.978-3.862
				c-0.044-0.013-0.09-0.026-0.119-0.035c-0.723-0.189-1.462-0.312-2.207-0.367c-0.93-0.069-1.51-1.006-1.438-1.865
				C353.003,362.449,353.922,361.878,354.789,361.942z"/>
			<path style="opacity:0.5;fill:#FFFFFF;enable-background:new    ;" d="M354.789,361.942c1.225,0.091,2.4,0.371,3.549,0.747
				c0.299-0.821,0.495-1.675,0.523-2.569c0.246-7.832-5.36-4.53-8.322-6.831c-1.477-1.147-3.287-1.885-4.956-1.554
				c0.25,0.432,0.478,0.877,0.67,1.341c0.31,0.75-0.179,1.531-0.948,1.675c-0.723,0.135-1.535,0.073-2.199-0.261
				c-0.208-0.104-0.381-0.255-0.566-0.391c-0.414,0.699-0.78,1.555-1.076,2.619c-0.302,1.088-0.458,2.216-0.507,3.349
				c0.441,0.099,0.878,0.216,1.31,0.37c0.674,0.239,1.034,1.316,0.49,1.861c-0.477,0.479-1.022,0.859-1.616,1.134
				c0.194,1.29,0.553,2.513,0.986,3.671c0.133,0.021,0.267,0.035,0.399,0.061c0.285,0.056,0.566,0.129,0.845,0.209
				c0.16,0.046,0.319,0.1,0.469,0.172c0.388,0.184,0.671,0.516,0.732,0.95c0.06,0.427-0.118,0.869-0.461,1.131
				c-0.182,0.139-0.383,0.249-0.583,0.358c0.893,1.413,1.948,2.533,3.102,3.13c0,0,1.429-0.624,3.299-1.744
				c-0.234-0.313-0.468-0.627-0.686-0.951c-0.257-0.382-0.371-0.774-0.332-1.23c0.037-0.442,0.305-0.828,0.634-1.105
				c0.318-0.267,0.825-0.385,1.23-0.332c0.396,0.051,0.876,0.294,1.105,0.635c0.26,0.386,0.546,0.753,0.829,1.121
				c1.431-1.078,2.855-2.381,3.978-3.862c-0.044-0.013-0.09-0.026-0.119-0.035c-0.723-0.189-1.462-0.312-2.207-0.367
				c-0.93-0.069-1.51-1.006-1.438-1.865C353.003,362.449,353.922,361.878,354.789,361.942z"/>
		</g>
		<g>
			<path style="fill:#407BFF;" d="M352.548,334.94c-0.683-0.49-1.424-0.858-2.192-1.165c0.203-0.562,0.475-1.097,0.853-1.579
				c3.308-4.222,4.803-0.027,7.37,0.064c1.28,0.046,2.554,0.452,3.286,1.359c-0.321,0.117-0.636,0.251-0.941,0.41
				c-0.492,0.258-0.578,0.883-0.237,1.296c0.32,0.388,0.774,0.712,1.27,0.828c0.155,0.036,0.312,0.033,0.469,0.043
				c-0.089,0.549-0.272,1.159-0.584,1.848c-0.319,0.704-0.732,1.365-1.204,1.982c-0.275-0.142-0.556-0.272-0.85-0.381
				c-0.459-0.17-1.121,0.238-1.074,0.763c0.04,0.461,0.16,0.9,0.351,1.305c-0.668,0.593-1.394,1.078-2.129,1.496
				c-0.079-0.047-0.155-0.099-0.236-0.143c-0.174-0.096-0.354-0.18-0.536-0.261c-0.104-0.046-0.211-0.087-0.322-0.116
				c-0.285-0.074-0.579-0.024-0.801,0.177c-0.219,0.198-0.32,0.508-0.254,0.797c0.035,0.153,0.092,0.299,0.149,0.444
				c-1.089,0.35-2.135,0.475-3.003,0.283c0,0-0.477-0.955-0.968-2.364c0.26-0.062,0.521-0.124,0.777-0.199
				c0.302-0.088,0.534-0.244,0.714-0.5c0.175-0.249,0.203-0.569,0.152-0.859c-0.05-0.28-0.265-0.564-0.5-0.715
				c-0.23-0.147-0.589-0.23-0.859-0.151c-0.306,0.089-0.617,0.156-0.928,0.225c-0.278-1.194-0.455-2.503-0.394-3.775
				c0.029,0.012,0.059,0.026,0.078,0.034c0.463,0.218,0.905,0.478,1.32,0.776c0.519,0.372,1.235,0.134,1.574-0.349
				C353.264,335.99,353.032,335.287,352.548,334.94z"/>
			<path style="opacity:0.3;fill:#FFFFFF;enable-background:new    ;" d="M352.548,334.94c-0.683-0.49-1.424-0.858-2.192-1.165
				c0.203-0.562,0.475-1.097,0.853-1.579c3.308-4.222,4.803-0.027,7.37,0.064c1.28,0.046,2.554,0.452,3.286,1.359
				c-0.321,0.117-0.636,0.251-0.941,0.41c-0.492,0.258-0.578,0.883-0.237,1.296c0.32,0.388,0.774,0.712,1.27,0.828
				c0.155,0.036,0.312,0.033,0.469,0.043c-0.089,0.549-0.272,1.159-0.584,1.848c-0.319,0.704-0.732,1.365-1.204,1.982
				c-0.275-0.142-0.556-0.272-0.85-0.381c-0.459-0.17-1.121,0.238-1.074,0.763c0.04,0.461,0.16,0.9,0.351,1.305
				c-0.668,0.593-1.394,1.078-2.129,1.496c-0.079-0.047-0.155-0.099-0.236-0.143c-0.174-0.096-0.354-0.18-0.536-0.261
				c-0.104-0.046-0.211-0.087-0.322-0.116c-0.285-0.074-0.579-0.024-0.801,0.177c-0.219,0.198-0.32,0.508-0.254,0.797
				c0.035,0.153,0.092,0.299,0.149,0.444c-1.089,0.35-2.135,0.475-3.003,0.283c0,0-0.477-0.955-0.968-2.364
				c0.26-0.062,0.521-0.124,0.777-0.199c0.302-0.088,0.534-0.244,0.714-0.5c0.175-0.249,0.203-0.569,0.152-0.859
				c-0.05-0.28-0.265-0.564-0.5-0.715c-0.23-0.147-0.589-0.23-0.859-0.151c-0.306,0.089-0.617,0.156-0.928,0.225
				c-0.278-1.194-0.455-2.503-0.394-3.775c0.029,0.012,0.059,0.026,0.078,0.034c0.463,0.218,0.905,0.478,1.32,0.776
				c0.519,0.372,1.235,0.134,1.574-0.349C353.264,335.99,353.032,335.287,352.548,334.94z"/>
		</g>
		<g>
			<path style="fill:#407BFF;" d="M384.188,342.779c0.227,1.589-4.082,2.635-7.596,3.221c0.287,2.885,2.206,5.801,4.857,8.524
				c3.335-1.879,8.096-4.363,8.973-3.756c0.958,0.663-3.917,3.815-6.966,5.668c2.145,1.903,4.559,3.677,6.906,5.231
				c1.495-1.397,3.245-2.623,4.288-1.959c1.081,0.688,0.789,2.849,0.255,4.777c3.628,2.115,6.344,3.402,6.344,3.402
				s1.523-4.616,2.424-10.301c-0.183-0.361-0.365-0.726-0.532-1.112c-0.584-1.352-0.015-1.928,0.951-2.117
				c0.25-2.488,0.321-5.047,0.059-7.421c-4.106-0.861-9.099-2.455-7.229-4.918c1.128-1.485,3.193-1.653,5.341-1.281
				c-0.3-0.495-0.633-0.962-1.014-1.382c-7.473-8.234-12.686,0-12.686,0c-4.343-3.619-10.443-2.64-11.762,3.016
				C379.24,341.746,383.907,340.816,384.188,342.779z"/>
			<path style="opacity:0.5;fill:#FFFFFF;enable-background:new    ;" d="M384.188,342.779c0.227,1.589-4.082,2.635-7.596,3.221
				c0.287,2.885,2.206,5.801,4.857,8.524c3.335-1.879,8.096-4.363,8.973-3.756c0.958,0.663-3.917,3.815-6.966,5.668
				c2.145,1.903,4.559,3.677,6.906,5.231c1.495-1.397,3.245-2.623,4.288-1.959c1.081,0.688,0.789,2.849,0.255,4.777
				c3.628,2.115,6.344,3.402,6.344,3.402s1.523-4.616,2.424-10.301c-0.183-0.361-0.365-0.726-0.532-1.112
				c-0.584-1.352-0.015-1.928,0.951-2.117c0.25-2.488,0.321-5.047,0.059-7.421c-4.106-0.861-9.099-2.455-7.229-4.918
				c1.128-1.485,3.193-1.653,5.341-1.281c-0.3-0.495-0.633-0.962-1.014-1.382c-7.473-8.234-12.686,0-12.686,0
				c-4.343-3.619-10.443-2.64-11.762,3.016C379.24,341.746,383.907,340.816,384.188,342.779z"/>
		</g>
	</g>
</g>
<g id="Umbrellas">
	<g>
		<g>
			<path style="fill:#263238;" d="M135.877,404.306c-0.91-1.604-0.707-3.237-0.794-4.862l-0.138-4.879l-0.277-9.758l-0.554-19.517
				l-1.08-39.034l-0.986-39.037l-0.409-19.587c0.027-2.035,0.9-4.044,2.354-5.455c1.439-1.428,3.464-2.253,5.485-2.246
				c2.024-0.018,4.045,0.808,5.479,2.225c1.451,1.402,2.316,3.398,2.354,5.411c0.018,0.828-0.64,1.514-1.468,1.531
				c-0.822,0.017-1.504-0.635-1.531-1.454c-0.038-1.246-0.574-2.45-1.472-3.307c-0.892-0.863-2.114-1.35-3.349-1.328
				c-1.236,0.009-2.44,0.514-3.308,1.386c-0.874,0.866-1.382,2.067-1.388,3.289l0.566,19.449l1.02,39.036l0.926,39.038l0.449,19.52
				l0.224,9.76l0.112,4.88c-0.003,1.628,0.284,3.248-0.543,4.897c-0.235,0.468-0.805,0.657-1.273,0.423
				C136.102,404.598,135.966,404.464,135.877,404.306z"/>
			<path style="opacity:0.4;fill:#FFFFFF;" d="M135.877,404.306c-0.91-1.604-0.707-3.237-0.794-4.862l-0.138-4.879l-0.277-9.758
				l-0.554-19.517l-1.08-39.034l-0.986-39.037l-0.409-19.587c0.027-2.035,0.9-4.044,2.354-5.455
				c1.439-1.428,3.464-2.253,5.485-2.246c2.024-0.018,4.045,0.808,5.479,2.225c1.451,1.402,2.316,3.398,2.354,5.411
				c0.018,0.828-0.64,1.514-1.468,1.531c-0.822,0.017-1.504-0.635-1.531-1.454c-0.038-1.246-0.574-2.45-1.472-3.307
				c-0.892-0.863-2.114-1.35-3.349-1.328c-1.236,0.009-2.44,0.514-3.308,1.386c-0.874,0.866-1.382,2.067-1.388,3.289l0.566,19.449
				l1.02,39.036l0.926,39.038l0.449,19.52l0.224,9.76l0.112,4.88c-0.003,1.628,0.284,3.248-0.543,4.897
				c-0.235,0.468-0.805,0.657-1.273,0.423C136.102,404.598,135.966,404.464,135.877,404.306z"/>
			<path style="fill:#263238;" d="M126.442,329.045c1.181,18.683,8.65,69.012,8.65,69.012l2.864-0.181c0,0,5.728-59.349,4.86-73.082
				c-0.868-13.733-3.657-22.193-3.657-22.193l2.646-11.239c0.103-0.437-0.428-0.745-0.759-0.443
				c-0.398,0.356-0.782,0.631-1.139,0.844c-2.02,1.18-3.547,0.324-4.564-0.864c-0.443-0.503-0.789-1.072-1.051-1.567
				c-0.204-0.378-0.749-0.283-0.854,0.124c-1.055,4.235-2.95,4.214-4.593,3.106c-0.544-0.366-1.055-0.845-1.507-1.337
				c-0.334-0.37-0.933-0.021-0.773,0.45l3.752,11.486C130.317,303.159,125.261,310.352,126.442,329.045z"/>
			<path style="opacity:0.2;fill:#FFFFFF;" d="M126.442,329.045c1.181,18.683,8.65,69.012,8.65,69.012l2.864-0.181
				c0,0,5.728-59.349,4.86-73.082c-0.868-13.733-3.657-22.193-3.657-22.193l2.646-11.239c0.103-0.437-0.428-0.745-0.759-0.443
				c-0.398,0.356-0.782,0.631-1.139,0.844c-2.02,1.18-3.547,0.324-4.564-0.864c-0.443-0.503-0.789-1.072-1.051-1.567
				c-0.204-0.378-0.749-0.283-0.854,0.124c-1.055,4.235-2.95,4.214-4.593,3.106c-0.544-0.366-1.055-0.845-1.507-1.337
				c-0.334-0.37-0.933-0.021-0.773,0.45l3.752,11.486C130.317,303.159,125.261,310.352,126.442,329.045z"/>
			<path style="opacity:0.2;enable-background:new    ;" d="M136.614,400.245c0.018-0.191,0.077-0.997,0.185-2.296
				c0.96-11.604,5.144-62.88,4.906-74.097c-0.27-12.668-4.087-20.753-4.087-20.753l2.29-11.337c-2.02,1.18-3.547,0.324-4.564-0.864
				l-0.574,11.85c0,0,1.964,3.182,2.903,22.151c0.822,16.661-0.617,62.213-0.984,73.057
				C136.64,399.242,136.621,400.034,136.614,400.245z"/>
			<path style="opacity:0.2;enable-background:new    ;" d="M136.181,397.988c0.137,0.893,0.217,1.379,0.217,1.379l-0.058-1.389
				l-3.844-94.426l0.942-14.098c-1.055,4.235-2.95,4.214-4.593,3.106l1.471,10.598C124.784,321.034,134.6,387.567,136.181,397.988z"
				/>
			<g>
				<polygon style="fill:#407BFF;" points="129.1,301.621 140.322,302.002 140.441,303.877 129.262,304.187 				"/>
				<polygon style="opacity:0.2;enable-background:new    ;" points="129.1,301.621 140.322,302.002 140.441,303.877 
					129.262,304.187 				"/>
			</g>
		</g>
		<g>
			<g>
				<path style="fill:#263238;" d="M138.065,416.379c-1.13-1.458-1.162-3.103-1.48-4.699l-0.834-4.809l-1.669-9.619l-3.337-19.237
					l-6.645-38.48l-6.553-38.496l-3.207-19.191c-0.242-1.198-0.974-2.278-1.998-2.959c-1.02-0.687-2.299-0.95-3.514-0.72
					c-1.215,0.217-2.321,0.931-3.029,1.951c-0.715,1.015-1.008,2.299-0.804,3.529c0.135,0.817-0.417,1.59-1.234,1.725
					c-0.811,0.135-1.579-0.413-1.723-1.221c-0.352-1.982,0.111-4.108,1.263-5.764c1.133-1.668,2.956-2.87,4.945-3.243
					c1.981-0.398,4.127,0.02,5.816,1.142c1.699,1.103,2.945,2.906,3.365,4.897l3.389,19.296l6.586,38.49l6.493,38.506l3.232,19.255
					l1.617,9.628l0.808,4.814c0.229,1.611,0.744,3.174,0.162,4.924c-0.165,0.497-0.702,0.766-1.199,0.6
					C138.329,416.636,138.176,416.522,138.065,416.379z"/>
			</g>
			<path style="fill:#407BFF;" d="M134.408,340.434c2.456,18.558,4.866,69.381,4.866,69.381l-2.845,0.377
				c0,0-17.103-57.12-18.908-70.761c-1.806-13.641-0.706-22.482-0.706-22.482l-4.771-10.515c-0.185-0.409,0.275-0.813,0.659-0.582
				c0.46,0.272,0.889,0.467,1.281,0.607c2.21,0.767,3.542-0.368,4.31-1.73c0.337-0.579,0.567-1.205,0.728-1.741
				c0.127-0.41,0.68-0.423,0.862-0.043c1.854,3.951,3.71,3.564,5.107,2.159c0.463-0.465,0.872-1.033,1.22-1.604
				c0.256-0.427,0.911-0.201,0.846,0.292l-1.459,11.995C125.598,315.787,131.951,321.866,134.408,340.434z"/>
			<path style="opacity:0.2;enable-background:new    ;" d="M138.193,409.958c0.039,0.903,0.054,1.395,0.054,1.395l-0.212-1.374
				l-14.499-93.385l-3.652-13.649c1.854,3.951,3.71,3.564,5.107,2.159l0.607,10.683
				C134.485,332.253,137.728,399.428,138.193,409.958z"/>
			<path style="opacity:0.2;enable-background:new    ;" d="M138.205,412.257c-0.054-0.185-0.269-0.963-0.626-2.217
				c-3.187-11.199-17.213-60.696-19.15-71.748c-2.187-12.481-0.006-21.152-0.006-21.152l-4.44-10.68
				c2.21,0.767,3.542-0.368,4.31-1.73l2.855,11.515c0,0-1.312,3.502,1.438,22.294c2.417,16.506,12.643,60.918,15.101,71.487
				C137.985,411.277,138.158,412.051,138.205,412.257z"/>
			<g>
				<polygon style="fill:#407BFF;" points="126.494,314.042 115.558,316.587 115.805,318.45 126.832,316.591 				"/>
				<polygon style="opacity:0.2;enable-background:new    ;" points="126.494,314.042 115.558,316.587 115.805,318.45 
					126.832,316.591 				"/>
			</g>
		</g>
		<g>
			<g>
				<path style="fill:#263238;" d="M141.297,416.19c-0.775-1.674-0.438-3.284-0.39-4.911l0.264-4.874l0.529-9.748l1.057-19.496
					l2.143-38.991l2.236-38.985l1.207-19.554c0.195-2.026,1.231-3.956,2.796-5.243c1.552-1.304,3.638-1.96,5.652-1.786
					c2.019,0.149,3.964,1.139,5.277,2.67c1.33,1.517,2.028,3.578,1.9,5.587c-0.051,0.827-0.762,1.456-1.589,1.405
					c-0.821-0.05-1.447-0.757-1.406-1.576c0.065-1.245-0.37-2.489-1.194-3.417c-0.818-0.933-1.996-1.52-3.228-1.599
					c-1.233-0.093-2.474,0.311-3.411,1.108c-0.942,0.791-1.548,1.946-1.654,3.164l-1.039,19.43l-2.203,38.987l-2.296,38.982
					l-1.162,19.49l-0.581,9.745l-0.291,4.872c-0.137,1.622,0.015,3.26-0.945,4.835c-0.273,0.447-0.856,0.589-1.303,0.316
					C141.497,416.5,141.373,416.355,141.297,416.19z"/>
			</g>
			<path style="fill:#407BFF;" d="M138.1,340.409c-0.364,18.716,2.931,69.49,2.931,69.49l2.87,0.056
				c0,0,10.602-58.675,10.869-72.433c0.267-13.757-1.815-22.419-1.815-22.419l3.564-10.983c0.138-0.427-0.365-0.777-0.72-0.504
				c-0.426,0.322-0.831,0.564-1.205,0.747c-2.11,1.009-3.561,0.031-4.477-1.237c-0.4-0.538-0.698-1.134-0.918-1.648
				c-0.172-0.393-0.723-0.344-0.861,0.053c-1.4,4.134-3.287,3.957-4.833,2.717c-0.512-0.41-0.982-0.929-1.392-1.457
				c-0.302-0.396-0.928-0.098-0.808,0.384l2.792,11.756C144.096,314.93,138.464,321.682,138.1,340.409z"/>
			<path style="opacity:0.4;fill:#FFFFFF;" d="M138.1,340.409c-0.364,18.716,2.931,69.49,2.931,69.49l2.87,0.056
				c0,0,10.602-58.675,10.869-72.433c0.267-13.757-1.815-22.419-1.815-22.419l3.564-10.983c0.138-0.427-0.365-0.777-0.72-0.504
				c-0.426,0.322-0.831,0.564-1.205,0.747c-2.11,1.009-3.561,0.031-4.477-1.237c-0.4-0.538-0.698-1.134-0.918-1.648
				c-0.172-0.393-0.723-0.344-0.861,0.053c-1.4,4.134-3.287,3.957-4.833,2.717c-0.512-0.41-0.982-0.929-1.392-1.457
				c-0.302-0.396-0.928-0.098-0.808,0.384l2.792,11.756C144.096,314.93,138.464,321.682,138.1,340.409z"/>
			<path style="opacity:0.2;enable-background:new    ;" d="M142.12,409.92c0.063,0.901,0.103,1.392,0.103,1.392l0.057-1.389
				l3.955-94.421l2.102-13.972c-1.4,4.134-3.287,3.957-4.833,2.717l0.592,10.684C137.107,332.288,141.404,399.404,142.12,409.92z"/>
			<path style="opacity:0.2;enable-background:new    ;" d="M142.366,412.205c0.033-0.189,0.159-0.987,0.374-2.273
				c1.914-11.485,10.311-62.241,10.999-73.44c0.776-12.647-2.362-21.02-2.362-21.02l3.217-11.11
				c-2.11,1.009-3.561,0.031-4.477-1.237l-1.549,11.762c0,0,1.695,3.334,1.067,22.315c-0.554,16.672-5.745,61.95-7.004,72.728
				C142.475,411.207,142.39,411.995,142.366,412.205z"/>
			<g>
				<polygon style="fill:#263238;" points="143.01,313.297 154.162,314.602 154.126,316.48 142.96,315.868 				"/>
				<polygon style="opacity:0.2;fill:#263238;enable-background:new    ;" points="143.01,313.297 154.162,314.602 154.126,316.48 
					142.96,315.868 				"/>
			</g>
			<g style="opacity:0.4;">
				<polygon style="fill:#FFFFFF;" points="143.01,313.297 154.162,314.602 154.126,316.48 142.96,315.868 				"/>
				<polygon style="opacity:0.2;fill:#FFFFFF;enable-background:new    ;" points="143.01,313.297 154.162,314.602 154.126,316.48 
					142.96,315.868 				"/>
			</g>
		</g>
		<g>
			<path style="fill:#263238;" d="M111.425,311.716v103.668h46.863V311.716H111.425z M156.712,313.562l-0.24,0.24l-0.509-0.509
				h0.749V313.562z M156.472,411.068l-4.288-4.288l4.288-4.288l0.24,0.24v8.097L156.472,411.068z M153.733,413.806h-5.329
				l-1.624-1.624l4.288-4.288l4.288,4.288L153.733,413.806z M114.358,412.183l4.288-4.288l4.288,4.288l-1.624,1.624h-5.33
				L114.358,412.183z M113.003,410.828v-8.097l0.24-0.24l4.288,4.288l-4.288,4.288L113.003,410.828z M113.243,316.033l4.288,4.288
				l-4.288,4.288l-0.24-0.24v-8.096L113.243,316.033z M115.983,313.294h5.328l1.624,1.624l-4.288,4.288l-4.288-4.288
				L115.983,313.294z M155.356,314.918l-4.288,4.288l-4.288-4.288l1.624-1.624h5.328L155.356,314.918z M133.742,347.339
				l-4.288,4.288l-4.288-4.288l4.288-4.288L133.742,347.339z M130.569,341.936l4.288-4.288l4.288,4.288l-4.288,4.288
				L130.569,341.936z M134.857,348.455l4.288,4.288l-4.288,4.288l-4.288-4.288L134.857,348.455z M133.742,358.147l-4.288,4.288
				l-4.288-4.288l4.288-4.288L133.742,358.147z M134.857,359.262l4.288,4.288l-4.288,4.288l-4.288-4.288L134.857,359.262z
				 M133.742,368.954l-4.288,4.288l-4.288-4.288l4.288-4.288L133.742,368.954z M134.857,370.069l4.288,4.288l-4.288,4.288
				l-4.288-4.288L134.857,370.069z M133.742,379.761l-4.288,4.288l-4.288-4.288l4.288-4.288L133.742,379.761z M134.857,380.876
				l4.288,4.288l-4.288,4.288l-4.288-4.288L134.857,380.876z M135.973,379.761l4.288-4.288l4.288,4.288l-4.288,4.288
				L135.973,379.761z M135.973,368.954l4.288-4.288l4.288,4.288l-4.288,4.288L135.973,368.954z M135.973,358.147l4.288-4.288
				l4.288,4.288l-4.288,4.288L135.973,358.147z M135.973,347.339l4.288-4.288l4.288,4.288l-4.288,4.288L135.973,347.339z
				 M135.973,336.532l4.288-4.288l4.288,4.288l-4.288,4.288L135.973,336.532z M134.857,335.417l-4.288-4.288l4.288-4.288
				l4.288,4.288L134.857,335.417z M133.742,336.532l-4.288,4.288l-4.288-4.288l4.288-4.288L133.742,336.532z M124.05,335.417
				l-4.288-4.288l4.288-4.288l4.288,4.288L124.05,335.417z M128.338,341.936l-4.288,4.288l-4.288-4.288l4.288-4.288L128.338,341.936
				z M128.338,352.743l-4.288,4.288l-4.288-4.288l4.288-4.288L128.338,352.743z M128.338,363.55l-4.288,4.288l-4.288-4.288
				l4.288-4.288L128.338,363.55z M128.338,374.357l-4.288,4.288l-4.288-4.288l4.288-4.288L128.338,374.357z M128.338,385.165
				l-4.288,4.288l-4.288-4.288l4.288-4.288L128.338,385.165z M125.165,390.568l4.288-4.288l4.288,4.288l-4.288,4.288
				L125.165,390.568z M128.338,395.972l-4.288,4.288l-4.288-4.288l4.288-4.288L128.338,395.972z M134.857,391.684l4.288,4.288
				l-4.288,4.288l-4.288-4.288L134.857,391.684z M135.973,390.568l4.288-4.288l4.288,4.288l-4.288,4.288L135.973,390.568z
				 M145.664,391.684l4.288,4.288l-4.288,4.288l-4.288-4.288L145.664,391.684z M141.376,385.165l4.288-4.288l4.288,4.288
				l-4.288,4.288L141.376,385.165z M141.376,374.357l4.288-4.288l4.288,4.288l-4.288,4.288L141.376,374.357z M141.376,363.55
				l4.288-4.288l4.288,4.288l-4.288,4.288L141.376,363.55z M141.376,352.743l4.288-4.288l4.288,4.288l-4.288,4.288L141.376,352.743z
				 M141.376,341.936l4.288-4.288l4.288,4.288l-4.288,4.288L141.376,341.936z M141.376,331.129l4.288-4.288l4.288,4.288
				l-4.288,4.288L141.376,331.129z M144.549,325.725l-4.288,4.288l-4.288-4.288l4.288-4.288L144.549,325.725z M141.376,320.321
				l4.288-4.288l4.288,4.288l-4.288,4.288L141.376,320.321z M134.857,324.61l-4.288-4.288l4.288-4.288l4.288,4.288L134.857,324.61z
				 M133.742,325.725l-4.288,4.288l-4.288-4.288l4.288-4.288L133.742,325.725z M124.05,324.609l-4.288-4.288l4.288-4.288
				l4.288,4.288L124.05,324.609z M122.935,325.725l-4.288,4.288l-4.288-4.288l4.288-4.288L122.935,325.725z M122.935,336.532
				l-4.288,4.288l-4.288-4.288l4.288-4.288L122.935,336.532z M122.935,347.339l-4.288,4.288l-4.288-4.288l4.288-4.288
				L122.935,347.339z M122.935,358.147l-4.288,4.288l-4.288-4.288l4.288-4.288L122.935,358.147z M122.935,368.954l-4.288,4.288
				l-4.288-4.288l4.288-4.288L122.935,368.954z M122.935,379.761l-4.288,4.288l-4.288-4.288l4.288-4.288L122.935,379.761z
				 M122.935,390.568l-4.288,4.288l-4.288-4.288l4.288-4.288L122.935,390.568z M122.935,401.375l-4.288,4.288l-4.288-4.289
				l4.288-4.288L122.935,401.375z M124.05,402.491l4.288,4.288l-4.288,4.288l-4.288-4.288L124.05,402.491z M125.165,401.375
				l4.288-4.288l4.288,4.288l-4.288,4.288L125.165,401.375z M134.857,402.491l4.288,4.288l-4.288,4.288l-4.288-4.288
				L134.857,402.491z M135.973,401.375l4.288-4.288l4.288,4.288l-4.288,4.288L135.973,401.375z M145.664,402.491l4.288,4.288
				l-4.288,4.288l-4.288-4.288L145.664,402.491z M146.78,401.375l4.288-4.288l4.288,4.288l-4.288,4.289L146.78,401.375z
				 M146.78,390.568l4.288-4.288l4.288,4.288l-4.288,4.288L146.78,390.568z M146.78,379.761l4.288-4.288l4.288,4.288l-4.288,4.288
				L146.78,379.761z M146.78,368.954l4.288-4.288l4.288,4.288l-4.288,4.288L146.78,368.954z M146.78,358.147l4.288-4.288
				l4.288,4.288l-4.288,4.288L146.78,358.147z M146.78,347.339l4.288-4.288l4.288,4.288l-4.288,4.288L146.78,347.339z
				 M146.78,336.532l4.288-4.288l4.288,4.288l-4.288,4.288L146.78,336.532z M146.78,325.725l4.288-4.288l4.288,4.288l-4.288,4.288
				L146.78,325.725z M145.665,313.802l-0.509-0.509h1.018L145.665,313.802z M144.549,314.918l-4.288,4.288l-4.288-4.288l1.624-1.624
				h5.329L144.549,314.918z M134.857,313.802l-0.509-0.509h1.018L134.857,313.802z M133.742,314.918l-4.288,4.288l-4.288-4.288
				l1.624-1.624h5.328L133.742,314.918z M124.05,313.802l-0.509-0.509h1.018L124.05,313.802z M113.243,326.84l4.288,4.288
				l-4.288,4.288l-0.24-0.24v-8.097L113.243,326.84z M113.243,337.647l4.288,4.288l-4.288,4.288l-0.24-0.24v-8.097L113.243,337.647z
				 M113.243,348.455l4.288,4.288l-4.288,4.288l-0.24-0.24v-8.097L113.243,348.455z M113.243,359.262l4.288,4.288l-4.288,4.288
				l-0.24-0.24v-8.097L113.243,359.262z M113.243,370.069l4.288,4.288l-4.288,4.288l-0.24-0.24v-8.096L113.243,370.069z
				 M113.243,380.876l4.288,4.288l-4.288,4.288l-0.24-0.24v-8.097L113.243,380.876z M113.243,391.683l4.288,4.288l-4.288,4.288
				l-0.24-0.24v-8.097L113.243,391.683z M124.05,413.298l0.508,0.508h-1.016L124.05,413.298z M125.165,412.183l4.288-4.288
				l4.288,4.288l-1.624,1.624h-5.329L125.165,412.183z M134.857,413.298l0.508,0.508h-1.017L134.857,413.298z M135.973,412.183
				l4.288-4.288l4.288,4.288l-1.624,1.624h-5.329L135.973,412.183z M145.665,413.298l0.508,0.508h-1.017L145.665,413.298z
				 M156.472,400.26l-4.288-4.288l4.288-4.288l0.24,0.24v8.097L156.472,400.26z M156.472,389.453l-4.288-4.288l4.288-4.288
				l0.24,0.24v8.097L156.472,389.453z M156.471,378.646l-4.288-4.288l4.288-4.288l0.24,0.24v8.097L156.471,378.646z
				 M156.472,367.839l-4.288-4.288l4.288-4.288l0.24,0.24v8.097L156.472,367.839z M156.472,357.031l-4.288-4.288l4.288-4.288
				l0.24,0.24v8.097L156.472,357.031z M156.472,346.224l-4.288-4.288l4.288-4.288l0.24,0.24v8.097L156.472,346.224z
				 M156.472,335.417l-4.288-4.288l4.288-4.288l0.24,0.24v8.097L156.472,335.417z M156.472,324.609l-4.288-4.288l4.288-4.288
				l0.24,0.24v8.097L156.472,324.609z M113.752,313.294l-0.509,0.509l-0.24-0.24v-0.269H113.752z M113.003,413.538l0.24-0.24
				l0.508,0.508h-0.748V413.538z M155.964,413.806l0.508-0.508l0.24,0.24v0.268H155.964z"/>
			<path style="opacity:0.5;fill:#FFFFFF;" d="M111.425,311.716v103.668h46.863V311.716H111.425z M156.712,313.562l-0.24,0.24
				l-0.509-0.509h0.749V313.562z M156.472,411.068l-4.288-4.288l4.288-4.288l0.24,0.24v8.097L156.472,411.068z M153.733,413.806
				h-5.329l-1.624-1.624l4.288-4.288l4.288,4.288L153.733,413.806z M114.358,412.183l4.288-4.288l4.288,4.288l-1.624,1.624h-5.33
				L114.358,412.183z M113.003,410.828v-8.097l0.24-0.24l4.288,4.288l-4.288,4.288L113.003,410.828z M113.243,316.033l4.288,4.288
				l-4.288,4.288l-0.24-0.24v-8.096L113.243,316.033z M115.983,313.294h5.328l1.624,1.624l-4.288,4.288l-4.288-4.288
				L115.983,313.294z M155.356,314.918l-4.288,4.288l-4.288-4.288l1.624-1.624h5.328L155.356,314.918z M133.742,347.339
				l-4.288,4.288l-4.288-4.288l4.288-4.288L133.742,347.339z M130.569,341.936l4.288-4.288l4.288,4.288l-4.288,4.288
				L130.569,341.936z M134.857,348.455l4.288,4.288l-4.288,4.288l-4.288-4.288L134.857,348.455z M133.742,358.147l-4.288,4.288
				l-4.288-4.288l4.288-4.288L133.742,358.147z M134.857,359.262l4.288,4.288l-4.288,4.288l-4.288-4.288L134.857,359.262z
				 M133.742,368.954l-4.288,4.288l-4.288-4.288l4.288-4.288L133.742,368.954z M134.857,370.069l4.288,4.288l-4.288,4.288
				l-4.288-4.288L134.857,370.069z M133.742,379.761l-4.288,4.288l-4.288-4.288l4.288-4.288L133.742,379.761z M134.857,380.876
				l4.288,4.288l-4.288,4.288l-4.288-4.288L134.857,380.876z M135.973,379.761l4.288-4.288l4.288,4.288l-4.288,4.288
				L135.973,379.761z M135.973,368.954l4.288-4.288l4.288,4.288l-4.288,4.288L135.973,368.954z M135.973,358.147l4.288-4.288
				l4.288,4.288l-4.288,4.288L135.973,358.147z M135.973,347.339l4.288-4.288l4.288,4.288l-4.288,4.288L135.973,347.339z
				 M135.973,336.532l4.288-4.288l4.288,4.288l-4.288,4.288L135.973,336.532z M134.857,335.417l-4.288-4.288l4.288-4.288
				l4.288,4.288L134.857,335.417z M133.742,336.532l-4.288,4.288l-4.288-4.288l4.288-4.288L133.742,336.532z M124.05,335.417
				l-4.288-4.288l4.288-4.288l4.288,4.288L124.05,335.417z M128.338,341.936l-4.288,4.288l-4.288-4.288l4.288-4.288L128.338,341.936
				z M128.338,352.743l-4.288,4.288l-4.288-4.288l4.288-4.288L128.338,352.743z M128.338,363.55l-4.288,4.288l-4.288-4.288
				l4.288-4.288L128.338,363.55z M128.338,374.357l-4.288,4.288l-4.288-4.288l4.288-4.288L128.338,374.357z M128.338,385.165
				l-4.288,4.288l-4.288-4.288l4.288-4.288L128.338,385.165z M125.165,390.568l4.288-4.288l4.288,4.288l-4.288,4.288
				L125.165,390.568z M128.338,395.972l-4.288,4.288l-4.288-4.288l4.288-4.288L128.338,395.972z M134.857,391.684l4.288,4.288
				l-4.288,4.288l-4.288-4.288L134.857,391.684z M135.973,390.568l4.288-4.288l4.288,4.288l-4.288,4.288L135.973,390.568z
				 M145.664,391.684l4.288,4.288l-4.288,4.288l-4.288-4.288L145.664,391.684z M141.376,385.165l4.288-4.288l4.288,4.288
				l-4.288,4.288L141.376,385.165z M141.376,374.357l4.288-4.288l4.288,4.288l-4.288,4.288L141.376,374.357z M141.376,363.55
				l4.288-4.288l4.288,4.288l-4.288,4.288L141.376,363.55z M141.376,352.743l4.288-4.288l4.288,4.288l-4.288,4.288L141.376,352.743z
				 M141.376,341.936l4.288-4.288l4.288,4.288l-4.288,4.288L141.376,341.936z M141.376,331.129l4.288-4.288l4.288,4.288
				l-4.288,4.288L141.376,331.129z M144.549,325.725l-4.288,4.288l-4.288-4.288l4.288-4.288L144.549,325.725z M141.376,320.321
				l4.288-4.288l4.288,4.288l-4.288,4.288L141.376,320.321z M134.857,324.61l-4.288-4.288l4.288-4.288l4.288,4.288L134.857,324.61z
				 M133.742,325.725l-4.288,4.288l-4.288-4.288l4.288-4.288L133.742,325.725z M124.05,324.609l-4.288-4.288l4.288-4.288
				l4.288,4.288L124.05,324.609z M122.935,325.725l-4.288,4.288l-4.288-4.288l4.288-4.288L122.935,325.725z M122.935,336.532
				l-4.288,4.288l-4.288-4.288l4.288-4.288L122.935,336.532z M122.935,347.339l-4.288,4.288l-4.288-4.288l4.288-4.288
				L122.935,347.339z M122.935,358.147l-4.288,4.288l-4.288-4.288l4.288-4.288L122.935,358.147z M122.935,368.954l-4.288,4.288
				l-4.288-4.288l4.288-4.288L122.935,368.954z M122.935,379.761l-4.288,4.288l-4.288-4.288l4.288-4.288L122.935,379.761z
				 M122.935,390.568l-4.288,4.288l-4.288-4.288l4.288-4.288L122.935,390.568z M122.935,401.375l-4.288,4.288l-4.288-4.289
				l4.288-4.288L122.935,401.375z M124.05,402.491l4.288,4.288l-4.288,4.288l-4.288-4.288L124.05,402.491z M125.165,401.375
				l4.288-4.288l4.288,4.288l-4.288,4.288L125.165,401.375z M134.857,402.491l4.288,4.288l-4.288,4.288l-4.288-4.288
				L134.857,402.491z M135.973,401.375l4.288-4.288l4.288,4.288l-4.288,4.288L135.973,401.375z M145.664,402.491l4.288,4.288
				l-4.288,4.288l-4.288-4.288L145.664,402.491z M146.78,401.375l4.288-4.288l4.288,4.288l-4.288,4.289L146.78,401.375z
				 M146.78,390.568l4.288-4.288l4.288,4.288l-4.288,4.288L146.78,390.568z M146.78,379.761l4.288-4.288l4.288,4.288l-4.288,4.288
				L146.78,379.761z M146.78,368.954l4.288-4.288l4.288,4.288l-4.288,4.288L146.78,368.954z M146.78,358.147l4.288-4.288
				l4.288,4.288l-4.288,4.288L146.78,358.147z M146.78,347.339l4.288-4.288l4.288,4.288l-4.288,4.288L146.78,347.339z
				 M146.78,336.532l4.288-4.288l4.288,4.288l-4.288,4.288L146.78,336.532z M146.78,325.725l4.288-4.288l4.288,4.288l-4.288,4.288
				L146.78,325.725z M145.665,313.802l-0.509-0.509h1.018L145.665,313.802z M144.549,314.918l-4.288,4.288l-4.288-4.288l1.624-1.624
				h5.329L144.549,314.918z M134.857,313.802l-0.509-0.509h1.018L134.857,313.802z M133.742,314.918l-4.288,4.288l-4.288-4.288
				l1.624-1.624h5.328L133.742,314.918z M124.05,313.802l-0.509-0.509h1.018L124.05,313.802z M113.243,326.84l4.288,4.288
				l-4.288,4.288l-0.24-0.24v-8.097L113.243,326.84z M113.243,337.647l4.288,4.288l-4.288,4.288l-0.24-0.24v-8.097L113.243,337.647z
				 M113.243,348.455l4.288,4.288l-4.288,4.288l-0.24-0.24v-8.097L113.243,348.455z M113.243,359.262l4.288,4.288l-4.288,4.288
				l-0.24-0.24v-8.097L113.243,359.262z M113.243,370.069l4.288,4.288l-4.288,4.288l-0.24-0.24v-8.096L113.243,370.069z
				 M113.243,380.876l4.288,4.288l-4.288,4.288l-0.24-0.24v-8.097L113.243,380.876z M113.243,391.683l4.288,4.288l-4.288,4.288
				l-0.24-0.24v-8.097L113.243,391.683z M124.05,413.298l0.508,0.508h-1.016L124.05,413.298z M125.165,412.183l4.288-4.288
				l4.288,4.288l-1.624,1.624h-5.329L125.165,412.183z M134.857,413.298l0.508,0.508h-1.017L134.857,413.298z M135.973,412.183
				l4.288-4.288l4.288,4.288l-1.624,1.624h-5.329L135.973,412.183z M145.665,413.298l0.508,0.508h-1.017L145.665,413.298z
				 M156.472,400.26l-4.288-4.288l4.288-4.288l0.24,0.24v8.097L156.472,400.26z M156.472,389.453l-4.288-4.288l4.288-4.288
				l0.24,0.24v8.097L156.472,389.453z M156.471,378.646l-4.288-4.288l4.288-4.288l0.24,0.24v8.097L156.471,378.646z
				 M156.472,367.839l-4.288-4.288l4.288-4.288l0.24,0.24v8.097L156.472,367.839z M156.472,357.031l-4.288-4.288l4.288-4.288
				l0.24,0.24v8.097L156.472,357.031z M156.472,346.224l-4.288-4.288l4.288-4.288l0.24,0.24v8.097L156.472,346.224z
				 M156.472,335.417l-4.288-4.288l4.288-4.288l0.24,0.24v8.097L156.472,335.417z M156.472,324.609l-4.288-4.288l4.288-4.288
				l0.24,0.24v8.097L156.472,324.609z M113.752,313.294l-0.509,0.509l-0.24-0.24v-0.269H113.752z M113.003,413.538l0.24-0.24
				l0.508,0.508h-0.748V413.538z M155.964,413.806l0.508-0.508l0.24,0.24v0.268H155.964z"/>
			<path style="fill:#263238;" d="M158.182,315.283h-46.649c-1.092,0-1.978-0.886-1.978-1.978v-2.295
				c0-1.092,0.886-1.978,1.978-1.978h46.649c1.092,0,1.978,0.885,1.978,1.978v2.295C160.16,314.397,159.274,315.283,158.182,315.283
				z"/>
			<rect x="110.693" y="413.845" style="fill:#263238;" width="48.328" height="2.393"/>
		</g>
	</g>
</g>
<g id="Speech_bubble">
	<g>
		<path style="fill:#407BFF;" d="M212.614,166.859l-5.992-1.54v-8.111c0-2.543-2.062-4.605-4.605-4.605h-19.301
			c-2.543,0-4.605,2.062-4.605,4.605v19.301c0,2.544,2.062,4.605,4.605,4.605h19.301c2.544,0,4.605-2.062,4.605-4.605v-8.111
			L212.614,166.859z"/>
		<g>
			<path style="fill:#407BFF;" d="M198.311,165.261l-3.388,0.107c0,0-0.904-2.342-1.146-7.589c0,0-1.184-0.074-1.744,0.119
				c-0.56,0.193-0.471,6.048-0.471,6.048s-6.116-0.11-6.431,0.167c-0.2,0.176-0.206,1.082-0.183,1.721
				c0.013,0.373,0.29,0.683,0.66,0.736l0.212,0.031l0.58,5.802c0.045,0.447,0.43,0.782,0.879,0.765l5.689-0.226
				c0.563-0.022,1.106-0.215,1.557-0.553l0.599-0.449l3.516,0.081L198.311,165.261z"/>
			<path style="opacity:0.7;fill:#FFFFFF;enable-background:new    ;" d="M198.311,165.261l-3.388,0.107
				c0,0-0.904-2.342-1.146-7.589c0,0-1.184-0.074-1.744,0.119c-0.56,0.193-0.471,6.048-0.471,6.048s-6.116-0.11-6.431,0.167
				c-0.2,0.176-0.206,1.082-0.183,1.721c0.013,0.373,0.29,0.683,0.66,0.736l0.212,0.031l0.58,5.802
				c0.045,0.447,0.43,0.782,0.879,0.765l5.689-0.226c0.563-0.022,1.106-0.215,1.557-0.553l0.599-0.449l3.516,0.081L198.311,165.261z
				"/>
		</g>
	</g>
</g>
<g id="Character">
	<g>
		<g>
			<path style="fill:#407BFF;" d="M293.358,99.374C293.358,99.374,293.358,99.374,293.358,99.374
				c0.066,1.163-68.551-1.41-109.009,21.01c-0.012-0.004,13.445-1.532,26.08,8.356c0.232,0.029,0.469,0.05,0.702,0.078
				c3.491,0.647,19.901,5.164,42.267,21.433c0.1-0.02,0.2-0.044,0.3-0.064c1.656-0.252,10.772-0.855,26.305,3.117
				c15.59,3.735,23.371,8.521,24.72,9.518c0.079,0.064,0.157,0.133,0.236,0.197c27.376-3.952,43.996-0.289,47.385,0.767
				c0.219,0.084,0.438,0.176,0.656,0.258c15.791-2.849,26.977,4.782,26.966,4.78C354.984,134.382,292.758,100.372,293.358,99.374z"
				/>
			<path style="opacity:0.2;enable-background:new    ;" d="M293.358,99.374C293.358,99.374,293.358,99.374,293.358,99.374
				c0.066,1.163-68.551-1.41-109.009,21.01c-0.012-0.004,13.445-1.532,26.08,8.356c0.232,0.029,0.469,0.05,0.702,0.078
				c3.491,0.647,19.901,5.164,42.267,21.433c0.1-0.02,0.2-0.044,0.3-0.064c1.656-0.252,10.772-0.855,26.305,3.117
				c15.59,3.735,23.371,8.521,24.72,9.518c0.079,0.064,0.157,0.133,0.236,0.197c27.376-3.952,43.996-0.289,47.385,0.767
				c0.219,0.084,0.438,0.176,0.656,0.258c15.791-2.849,26.977,4.782,26.966,4.78C354.984,134.382,292.758,100.372,293.358,99.374z"
				/>
		</g>
		<g>
			<path style="fill:#E4897B;" d="M284.5,166.316l-0.637-8.274c0,0,1.909-2.037,2.928-4.073c1.018-2.037-0.891-8.91-1.464-9.547
				c-0.573-0.637-7.956,2.419-8.083,3.437c-0.127,1.018,0.683,7.816,1.36,8.363c0.677,0.547,0.845,1.311,0.845,1.311v8.783H284.5z"
				/>
			<path style="fill:#407BFF;" d="M257.693,181.115c5.844-0.542,19.464-1.284,20.101-2.122c0.637-0.838,0.496-18.77,0.496-18.77
				l10.578,5.012c0,0-0.255,19.022-1.909,22.59c-1.655,3.568-27.24,6.114-27.24,6.114L257.693,181.115z"/>
			<path style="opacity:0.1;fill:#FFFFFF;enable-background:new    ;" d="M288.871,165.236c0,0-0.261,19.016-1.911,22.588
				c-0.965,2.066-9.942,3.794-17.327,4.875c-5.377,0.792-9.914,1.245-9.914,1.245l-1.168-7.413l-0.859-5.415
				c5.84-0.541,19.46-1.284,20.097-2.124c0.637-0.84,0.502-18.765,0.502-18.765L288.871,165.236z"/>
			<polygon style="fill:#407BFF;" points="277.794,158.574 290.905,164.583 290.141,170.39 276.991,165.468 			"/>
			<path style="opacity:0.2;enable-background:new    ;" d="M269.633,192.698c-5.377,0.792-9.914,1.245-9.914,1.245l-1.168-7.413
				C261.023,187.013,266.013,188.48,269.633,192.698z"/>
		</g>
		<path style="fill:#E4897B;" d="M219.929,394.393l4.636,2.726c0,0,2.246-3.196,7.045-8.35v-0.01
			c1.344-1.42,2.755-2.995,4.223-4.684c2.937-3.369,6.114-7.218,9.444-11.354c0.979-1.219,1.977-2.467,2.985-3.734
			c11.604-14.599,24.148-31.76,28.842-43.364c1.459-3.609,2.169-6.671,1.853-8.965c-0.951-6.93-3.647-17.363-6.728-27.441
			c-4.684-15.405-9.953-30.003-9.953-30.003l-12.948,21.931c0,0,3.974,9.473,7.592,19.561c3.561,9.905,6.776,20.415,5.586,23.15
			c-0.115,0.269-0.259,0.586-0.422,0.921c-2.15,4.453-8.101,14.541-14.858,25.684c-0.681,1.123-1.373,2.255-2.064,3.388
			c-3.628,5.951-7.4,12.065-10.894,17.68c-1.363,2.207-2.687,4.338-3.945,6.354C224.373,387.454,219.929,394.393,219.929,394.393z"
			/>
		<path style="opacity:0.2;enable-background:new    ;" d="M248.526,368.987c-6.124,7.698-12.007,14.685-16.384,19.772
			c-0.624-3.129-1.257-6.834-1.757-10.875c5.058-8.12,11.249-18.14,16.873-27.421C247.21,355.377,247.393,362.643,248.526,368.987z"
			/>
		<path style="fill:#E4897B;" d="M225.419,305.525c1.603,10.932,3.887,20.837,5.375,26.74c0.893,3.542,1.497,5.634,1.497,5.634
			c-0.086,11.028,0.797,22.843,1.977,33.631c0.49,4.396,1.018,8.619,1.564,12.544c2.016,14.531,4.137,24.964,4.137,24.964
			l5.519-0.72l-0.211-35.599l-0.115-18.87l-0.154-25.675l-0.058-4.473l-0.268-19.522l-0.394-28.794l-19.196-8.638
			C222.52,277.691,223.48,292.357,225.419,305.525z"/>
		<path style="fill:#263238;" d="M220.354,391.366c0.565-0.411,5.344,6.748,5.344,6.748s-1.064,7.463,1.092,12.276
			c2.156,4.813-2.033,4.403-5.516-0.157c-3.483-4.56-6.141-8.04-8.616-11.28C210.184,395.713,214.491,395.63,220.354,391.366z"/>
		<g>
			<path style="fill:#407BFF;" d="M227.319,403.517c-1.085-0.255-1.79-3.349-1.92-3.967c-0.007-0.03-0.007-0.06-0.001-0.09l0,0
				l0.001-0.001c0.005-0.024,0.013-0.047,0.025-0.069h0.001l0,0c0.012-0.022,0.028-0.041,0.046-0.058h0.001
				c0.001,0.002,0.001-0.001,0.001-0.001h0.001l0.001-0.001l0,0c0.024-0.02,0.05-0.035,0.078-0.044
				c0.099-0.031,2.119-0.669,3.21-0.039c0.347,0.201,0.566,0.504,0.651,0.901c0.09,0.424,0.013,0.723-0.231,0.887
				c-0.375,0.253-1.106,0.041-1.826-0.287c0.496,0.534,0.933,1.137,1.001,1.658c0.037,0.277-0.025,0.518-0.183,0.717
				c-0.254,0.321-0.503,0.409-0.7,0.409C227.417,403.536,227.365,403.528,227.319,403.517z M227.422,403.077
				c0.045,0.01,0.179,0.043,0.395-0.232c0.08-0.101,0.109-0.225,0.089-0.377c-0.093-0.708-1.162-1.745-1.917-2.38
				C226.333,401.419,226.913,402.957,227.422,403.077z M226.174,399.592c1.156,0.718,2.431,1.289,2.753,1.07
				c0.099-0.067,0.069-0.29,0.042-0.417c-0.058-0.271-0.2-0.469-0.434-0.604c-0.28-0.162-0.653-0.219-1.036-0.219
				C227.02,399.422,226.525,399.511,226.174,399.592z"/>
		</g>
		<path style="fill:#263238;" d="M238.016,405.517c0.016-0.699,8.607-0.151,8.607-0.151s5.285,5.375,10.419,6.584
			c5.134,1.208,2.265,4.289-3.473,4.289c-5.738,0-10.117,0-14.194,0C235.298,416.238,237.846,412.765,238.016,405.517z"/>
		<g>
			<path style="fill:#407BFF;" d="M247.582,406.476c-0.028-0.013-0.052-0.031-0.072-0.053l0-0.001l0,0
				c-0.016-0.018-0.03-0.039-0.039-0.062l0,0l0-0.001c-0.009-0.022-0.015-0.046-0.016-0.071l0,0l-0.001-0.001c0,0,0,0,0-0.001l0,0
				c-0.002-0.032,0.003-0.063,0.013-0.091c0.037-0.103,0.757-2.091,1.917-2.574c0.37-0.154,0.744-0.142,1.111,0.03
				c0.391,0.186,0.582,0.428,0.565,0.722c-0.026,0.452-0.638,0.905-1.336,1.277c0.725-0.07,1.47-0.051,1.926,0.211
				c0.242,0.139,0.396,0.335,0.459,0.581c0.13,0.509-0.042,0.779-0.208,0.916c-0.178,0.146-0.444,0.206-0.758,0.206
				C249.942,407.565,248.034,406.691,247.582,406.476z M248.368,406.332c1.266,0.537,2.839,1.01,3.245,0.677
				c0.035-0.029,0.142-0.117,0.057-0.454c-0.032-0.125-0.112-0.223-0.246-0.3c-0.238-0.136-0.601-0.188-1.013-0.188
				C249.75,406.066,248.962,406.2,248.368,406.332z M249.558,404.039c-0.673,0.279-1.204,1.256-1.473,1.846
				c1.272-0.483,2.5-1.151,2.522-1.537c0.007-0.12-0.189-0.232-0.307-0.287c-0.133-0.063-0.264-0.095-0.395-0.095
				C249.79,403.966,249.675,403.991,249.558,404.039z"/>
		</g>
		<g>
			<path style="fill:#407BFF;" d="M274.665,278.272l-23.582,8.379l-0.787-2.159l-0.969-2.659l-0.403,3.839l-0.307,2.947h-28.631
				c0,0-0.086-0.825-0.173-2.303c-0.278-4.607-0.633-15.587,1.152-28.199c1.075-7.621,2.937-15.846,6.066-23.611
				c0.24-0.595,0.489-1.181,0.739-1.766l30.713-2.371l0.259,1.478l1.929,11.028l3.666,9.272l9.051,22.891L274.665,278.272z"/>
			<path style="opacity:0.7;fill:#FFFFFF;" d="M274.665,278.272l-23.582,8.379l-0.787-2.159l-0.969-2.659l-0.403,3.839l-0.307,2.947
				h-28.631c0,0-0.086-0.825-0.173-2.303c-0.278-4.607-0.633-15.587,1.152-28.199c1.075-7.621,2.937-15.846,6.066-23.611
				c0.24-0.595,0.489-1.181,0.739-1.766l30.713-2.371l0.259,1.478l1.929,11.028l3.666,9.272l9.051,22.891L274.665,278.272z"/>
			<path style="opacity:0.6;fill:#FFFFFF;enable-background:new    ;" d="M246.366,234.296c0,0.859,0.696,1.555,1.554,1.555
				c0.859,0,1.555-0.696,1.555-1.555c0-0.858-0.696-1.554-1.555-1.554C247.062,232.742,246.366,233.438,246.366,234.296z"/>
			<path style="opacity:0.2;" d="M234.507,235.532c0,0-3.484,19.234-13.543,22.584c1.075-7.621,2.937-15.846,6.066-23.611
				L234.507,235.532z"/>
			<path style="opacity:0.2;" d="M264.338,252.146c-8.052-3.926-7.918-19.407-7.918-19.407l2.323-0.893l1.929,11.028
				L264.338,252.146z"/>
			<path style="opacity:0.2;" d="M248.923,285.672l-0.307,2.947h-28.631c0,0-0.086-0.825-0.173-2.303L248.923,285.672z"/>
			<polygon style="opacity:0.2;" points="274.665,278.272 251.083,286.65 250.296,284.491 273.389,275.037 			"/>
			<path style="opacity:0.2;" d="M249.327,281.836l0.613-7.847l6.481-12.72c0,0,2.042,7.339-1.186,13.874
				C252.008,281.678,249.327,281.836,249.327,281.836z"/>
			<polygon style="fill:#263238;enable-background:new    ;" points="227.77,232.742 226.476,235.938 259.171,234.296 
				258.484,230.369 			"/>
			<path style="fill:#FFFFFF;" d="M245.031,231.553l0.382,3.59c0.042,0.394,0.39,0.682,0.784,0.651l4.787-0.381
				c0.407-0.032,0.708-0.391,0.669-0.798l-0.337-3.539c-0.038-0.394-0.382-0.686-0.777-0.66l-4.832,0.329
				C245.294,230.775,244.987,231.141,245.031,231.553z"/>
			<polygon style="fill:#407BFF;" points="237.01,231.985 236.63,236.209 235.444,236.209 235.634,231.985 			"/>
			<polygon style="fill:#407BFF;" points="254.239,230.697 254.714,235.117 255.805,235.117 255.426,230.514 			"/>
			<polygon style="opacity:0.7;fill:#FFFFFF;" points="237.01,231.985 236.63,236.209 235.444,236.209 235.634,231.985 			"/>
			<polygon style="opacity:0.7;fill:#FFFFFF;" points="254.239,230.697 254.714,235.117 255.805,235.117 255.426,230.514 			"/>
		</g>
		<g>
			<path style="fill:#263238;" d="M227.768,152.443c0,0-4.827,1.782-6.354,8.401c-1.527,6.619,2.536,20.876,3.177,27.622
				c0.641,6.746-6.741,20.431,12.48,21.672c19.221,1.24,22.02-51.246,13.11-54.916C241.271,151.552,227.768,152.443,227.768,152.443
				z"/>
			<path style="fill:none;stroke:#263238;stroke-width:0.5;stroke-linecap:round;stroke-linejoin:round;stroke-miterlimit:10;" d="
				M249.279,155.987c5.358-2.525,7.663,14.94,5.754,27.548"/>
		</g>
		<path style="fill:#263238;" d="M227.77,232.739c0,0-2.56-22.87-9.135-39.044c0,0,13.472-7.262,39.058-12.578
			c0,0,6.537,11.78,0.791,49.251L227.77,232.739z"/>
		<g>
			<path style="fill:#407BFF;" d="M248.923,223.9l-21.155,38.14l-21.257-4.964l19.604-28.259l-7.481-35.122
				c0,0,12.146-10.252,39.058-12.578c0,0,7.465,12.281,3.155,42.783l10.773,29.738l-1.909,2.132L248.923,223.9z"/>
			<path style="opacity:0.2;fill:#FFFFFF;enable-background:new    ;" d="M271.622,253.637l-1.911,2.133l-20.783-31.874
				l-21.159,38.139l-21.256-4.962l19.605-28.254l-2.191-10.271l-3.301-15.503l-1.988-9.354c0,0,12.143-10.251,39.056-12.578
				c0,0,4.73,7.79,4.488,26.372c-0.029,2.124-0.125,4.392-0.299,6.805c-0.212,2.973-0.55,6.168-1.033,9.605L271.622,253.637z"/>
			<path style="opacity:0.2;enable-background:new    ;" d="M262.181,207.486c-0.029,2.124-0.125,4.392-0.299,6.805
				c-5.174,3.938-20.374,13.105-24.872,13.124c-3.639,0.01-13.083-8.868-13.083-8.868l-3.301-15.503
				c3.301,2.5,17.404,13.099,20.86,14.441c3.919,1.525,19.364-13.022,19.364-13.022L262.181,207.486z"/>
		</g>
		<g>
			<g>
				<path style="fill:#407BFF;" d="M247.141,197.694c0,0,7.934-8.53,8.664-10.852s-3.318-3.307-3.318-3.307
					s-2.285-4.743-5.037-5.507c-2.752-0.764-19.871,4.773-20.477,6.492c-0.605,1.718-0.497,5.69-0.497,5.69s-1.382,0.611,1.26,3.284
					C230.378,196.166,247.141,197.694,247.141,197.694z"/>
				<path style="opacity:0.1;fill:#FFFFFF;enable-background:new    ;" d="M247.141,197.694c0,0,7.934-8.53,8.664-10.852
					s-3.318-3.307-3.318-3.307s-2.285-4.743-5.037-5.507c-2.752-0.764-19.871,4.773-20.477,6.492
					c-0.605,1.718-0.497,5.69-0.497,5.69s-1.382,0.611,1.26,3.284C230.378,196.166,247.141,197.694,247.141,197.694z"/>
			</g>
			<path style="fill:#E4897B;" d="M245.098,196.804c-6.571-2.93-12.846-7.376-12.846-7.376c3.137-2.954,2.568-7.317,1.766-10.039
				c-0.434-1.506-0.946-2.51-0.946-2.51l9.238,1.728c-0.241,1.525-0.348,2.809-0.357,3.89c-0.019,1.187,0.087,2.124,0.261,2.857
				c0.628,2.761,2.201,2.799,2.201,2.799C246.036,191.185,245.098,196.804,245.098,196.804z"/>
			<path style="opacity:0.2;enable-background:new    ;" d="M241.953,182.497c-0.019,1.187,0.087,2.124,0.261,2.857
				c-3.668-0.483-6.448-3.417-8.195-5.965c-0.434-1.506-0.946-2.51-0.946-2.51l9.238,1.728
				C242.069,180.132,241.963,181.416,241.953,182.497z"/>
			<g>
				<path style="fill:none;stroke:#FFFFFF;stroke-linecap:round;stroke-linejoin:round;stroke-miterlimit:10;" d="M239.771,195.721
					c0,0,4.48,4.71,2.539,9.929"/>
				<path style="fill:none;stroke:#FFFFFF;stroke-linecap:round;stroke-linejoin:round;stroke-miterlimit:10;" d="M247.371,194.511
					c0,0,4.073,4.137,9.038,3.182"/>
				<path style="fill:#FFFFFF;" d="M243.026,206.075c0,0.481-0.39,0.871-0.871,0.871c-0.481,0-0.871-0.39-0.871-0.871
					s0.39-0.871,0.871-0.871C242.636,205.204,243.026,205.594,243.026,206.075z"/>
				<path style="fill:#FFFFFF;" d="M257.635,197.694c0,0.481-0.39,0.871-0.871,0.871c-0.481,0-0.871-0.39-0.871-0.871
					c0-0.481,0.39-0.871,0.871-0.871C257.246,196.823,257.635,197.213,257.635,197.694z"/>
			</g>
		</g>
		<g>
			<g>
				<path style="fill:#263238;" d="M296.852,88.746c0.466,1.733-0.15,3.199-0.483,4.734l-1.12,4.577l-2.24,9.154l-4.479,18.307
					l-8.986,36.607l-9.077,36.585l-4.579,18.213c-0.246,1.139-0.02,2.363,0.616,3.349c0.629,0.991,1.646,1.709,2.796,1.971
					c1.146,0.275,2.385,0.072,3.393-0.548c1.013-0.614,1.761-1.625,2.052-2.779c0.203-0.803,1.018-1.29,1.822-1.087
					c0.797,0.202,1.281,1.01,1.09,1.808c-0.457,1.903-1.696,3.616-3.367,4.644c-1.658,1.045-3.75,1.407-5.667,0.966
					c-1.92-0.416-3.669-1.623-4.737-3.28c-1.085-1.644-1.493-3.735-1.094-5.672l4.456-18.382l9.044-36.593l9.135-36.57l4.582-18.282
					l2.291-9.141l1.145-4.57c0.421-1.514,0.561-3.097,1.782-4.413c0.359-0.387,0.964-0.41,1.351-0.05
					C296.714,88.42,296.806,88.58,296.852,88.746z"/>
			</g>
			<path style="fill:#407BFF;" d="M295.344,91.356L295.344,91.356c-0.008-0.001-56.12-6.705-110.994,29.028
				c0,0,16.33-8.752,30.589-4.377c0,0,20.2-4.787,45.528,9.438c0,0,9.556-3.011,26.163,1.102
				c16.607,4.113,23.654,11.234,23.654,11.234c29.039-0.762,44.671,12.898,44.671,12.898c14.654,2.784,25.012,18.145,25.012,18.145
				C348.108,111.614,295.351,91.359,295.344,91.356z"/>
			<path style="opacity:0.4;fill:#FFFFFF;enable-background:new    ;" d="M295.344,91.356L295.344,91.356
				c-0.008-0.001-56.12-6.705-110.994,29.028c0,0,16.33-8.752,30.589-4.377c0,0,20.2-4.787,45.528,9.438
				c0,0,9.556-3.011,26.163,1.102c16.607,4.113,23.654,11.234,23.654,11.234c29.039-0.762,44.671,12.898,44.671,12.898
				c14.654,2.784,25.012,18.145,25.012,18.145C348.108,111.614,295.351,91.359,295.344,91.356z"/>
			<g>
				<path style="fill:#407BFF;" d="M214.939,116.008c0,0,20.2-4.787,45.528,9.438c11.541-23.307,34.877-34.089,34.877-34.089
					C295.336,91.356,245.592,90.713,214.939,116.008z"/>
				<path style="fill:#407BFF;" d="M295.344,91.356L295.344,91.356c0,0,15.608,20.425,14.939,46.425
					c29.039-0.762,44.671,12.898,44.671,12.898C339.647,114.004,295.35,91.36,295.344,91.356z"/>
			</g>
		</g>
		<g>
			<path style="fill:#E4897B;" d="M250.284,207.24c0.015,0.064,11.659-7.988,11.659-7.988s1.667-3.532,2.394-4.295
				c0.727-0.764,9.128-1.782,9.765-1.782c0.636,0-1.527,8.882-1.782,9.342c-0.255,0.46-7.983,1.491-7.983,1.491l-10.099,7.879
				L250.284,207.24z"/>
			<path style="fill:#407BFF;" d="M218.634,193.694c-5.586,7.982,11.145,30.158,16.059,32.958s28.381-16.582,28.381-16.582
				l-5.137-10.102c0,0-16.868,13.7-19.126,12.682c-2.258-1.018-8.878-11.071-11.042-15.846
				C225.604,192.029,220.319,191.286,218.634,193.694z"/>
			<path style="opacity:0.1;fill:#FFFFFF;enable-background:new    ;" d="M218.634,193.694
				c-5.586,7.982,11.145,30.158,16.059,32.958s28.381-16.582,28.381-16.582l-5.137-10.102c0,0-16.868,13.7-19.126,12.682
				c-2.258-1.018-8.878-11.071-11.042-15.846C225.604,192.029,220.319,191.286,218.634,193.694z"/>
			<polygon style="fill:#407BFF;" points="252.487,203.245 257.809,198.776 264.338,210.996 259.171,215.705 			"/>
		</g>
		<g>
			<path style="fill:#E4897B;" d="M240.126,152.602c9.948,0,10.783,4.808,11.354,13.093c0.713,10.354-1.599,17.704-11.645,15.47
				C226.191,178.132,226.776,152.602,240.126,152.602z"/>
			<path style="fill:#DE5753;" d="M246.284,165.234c0,0,1.109,2.102,2.332,3.339c0,0-0.691,1.092-2.121,0.905L246.284,165.234z"/>
			<g>
				<path style="fill:#263238;" d="M241.365,164.566c0.014,0.661-0.332,1.203-0.772,1.213c-0.44,0.009-0.809-0.518-0.822-1.179
					c-0.014-0.66,0.332-1.203,0.772-1.213C240.983,163.378,241.352,163.906,241.365,164.566z"/>
				<path style="fill:#263238;" d="M240.36,163.423l1.424-0.594C241.784,162.829,241.095,164.053,240.36,163.423z"/>
			</g>
			<g>
				<path style="fill:#263238;" d="M249.572,164.255c0.014,0.661-0.332,1.203-0.772,1.213c-0.44,0.009-0.809-0.518-0.822-1.179
					c-0.014-0.661,0.331-1.203,0.772-1.213C249.19,163.067,249.558,163.595,249.572,164.255z"/>
				<path style="fill:#263238;" d="M248.566,163.112l1.424-0.594C249.991,162.518,249.301,163.742,248.566,163.112z"/>
			</g>
			
				<path style="fill:none;stroke:#263238;stroke-width:0.708;stroke-linecap:round;stroke-linejoin:round;stroke-miterlimit:10;" d="
				M241.297,159.015c0,0-2.258-0.299-3.489,1.207"/>
			
				<path style="fill:none;stroke:#263238;stroke-width:0.708;stroke-linecap:round;stroke-linejoin:round;stroke-miterlimit:10;" d="
				M247.141,158.688c0,0,1.421-0.522,3.202,0.668"/>
			<path style="fill:#263238;" d="M231.477,166.611c0,0,3.773-6.596,3.215-11.696c0,0,5.668-5.845,13.304-0.068
				c0,0,3.192,5.495,3.39,9.767c0,0,1.589-14.354-12.229-14.704c-13.796-0.35-13.804,19.866-6.681,25.905
				C232.476,175.814,229.143,170.737,231.477,166.611z"/>
			<path style="fill:#E4897B;" d="M232.787,168.311c-0.051-1.294-1.382-3.488-3.789-3.231c-2.492,0.266-3.69,5.377,2.503,6.621
				C232.389,171.88,232.893,171.012,232.787,168.311z"/>
			
				<path style="fill:none;stroke:#263238;stroke-width:0.708;stroke-linecap:round;stroke-linejoin:round;stroke-miterlimit:10;" d="
				M245.408,173.832c0,0-3.369,0.761-4.763-2.249"/>
			<path style="fill:#263238;" d="M234.693,154.915c0,0,9.185-4.078,15.265,1.307c0,0,2.388-7.089-5.758-9.507
				c-8.147-2.418-16.431,5.728-16.431,5.728L234.693,154.915z"/>
			<path style="fill:#263238;" d="M234.693,154.915c0,0-5.363,5.291-4.587,15.826c0.776,10.535-0.244,17.197-2.338,23.79
				c-2.094,6.593,3.386,8.561,3.386,8.561s-6.245,1.54-7.531-5.142c-0.844-4.384,1.164-13.883,0.153-25.199
				S226.801,153.439,234.693,154.915z"/>
		</g>
	</g>
</g>
</svg>
